<?xml version="1.0" standalone="no"?>
<!DOCTYPE svg PUBLIC "-//W3C//DTD SVG 20010904//EN"
 "http://www.w3.org/TR/2001/REC-SVG-20010904/DTD/svg10.dtd">
<svg version="1.0" xmlns="http://www.w3.org/2000/svg"
 width="757.000000pt" height="762.000000pt" viewBox="0 0 757.000000 762.000000"
 preserveAspectRatio="xMidYMid meet">

<g transform="translate(0.000000,762.000000) scale(0.100000,-0.100000)"
fill="#000000" stroke="none">
<path d="M720 7600 c0 -5 7 -10 15 -10 8 0 15 5 15 10 0 6 -7 10 -15 10 -8 0
-15 -4 -15 -10z"/>
<path d="M908 7533 c6 -2 18 -2 25 0 6 3 1 5 -13 5 -14 0 -19 -2 -12 -5z"/>
<path d="M560 7509 c0 -5 5 -7 10 -4 6 3 10 8 10 11 0 2 -4 4 -10 4 -5 0 -10
-5 -10 -11z"/>
<path d="M628 7508 c9 -9 15 -9 24 0 9 9 7 12 -12 12 -19 0 -21 -3 -12 -12z"/>
<path d="M705 7490 c-3 -5 -1 -10 4 -10 6 0 11 5 11 10 0 6 -2 10 -4 10 -3 0
-8 -4 -11 -10z"/>
<path d="M908 7493 c6 -2 18 -2 25 0 6 3 1 5 -13 5 -14 0 -19 -2 -12 -5z"/>
<path d="M625 7460 c-8 -13 5 -13 25 0 13 8 13 10 -2 10 -9 0 -20 -4 -23 -10z"/>
<path d="M350 7380 c0 -47 4 -80 10 -80 6 0 10 33 10 80 0 47 -4 80 -10 80 -6
0 -10 -33 -10 -80z"/>
<path d="M560 7420 c0 -5 5 -10 10 -10 6 0 10 5 10 10 0 6 -4 10 -10 10 -5 0
-10 -4 -10 -10z"/>
<path d="M300 7395 c0 -8 5 -15 10 -15 6 0 10 7 10 15 0 8 -4 15 -10 15 -5 0
-10 -7 -10 -15z"/>
<path d="M460 7395 c-10 -12 -10 -15 4 -15 9 0 16 7 16 15 0 8 -2 15 -4 15 -2
0 -9 -7 -16 -15z"/>
<path d="M0 7361 c0 -11 4 -21 9 -21 18 0 21 18 6 30 -13 10 -15 9 -15 -9z"/>
<path d="M61 7367 c-6 -8 -8 -17 -4 -20 11 -12 23 -8 23 7 0 10 14 16 43 19
l42 4 -46 1 c-29 1 -51 -3 -58 -11z"/>
<path d="M408 7373 c7 -3 16 -2 19 1 4 3 -2 6 -13 5 -11 0 -14 -3 -6 -6z"/>
<path d="M450 7340 c0 -5 7 -10 15 -10 8 0 15 5 15 10 0 6 -7 10 -15 10 -8 0
-15 -4 -15 -10z"/>
<path d="M26 7311 c-9 -14 35 -19 89 -10 l50 8 -53 -3 c-29 -2 -55 1 -58 5 -7
12 -21 11 -28 0z"/>
<path d="M408 7303 c7 -3 16 -2 19 1 4 3 -2 6 -13 5 -11 0 -14 -3 -6 -6z"/>
<path d="M0 7270 c0 -11 6 -20 13 -20 9 0 9 -2 -1 -8 -14 -10 -15 -262 0 -262
4 0 8 7 8 15 0 8 5 15 10 15 6 0 10 -9 10 -20 0 -12 10 -25 23 -30 l22 -9 -22
-7 c-30 -8 -29 -22 2 -34 14 -5 25 -12 25 -15 0 -4 -4 -4 -9 0 -5 3 -17 -13
-27 -35 -10 -22 -24 -40 -31 -40 -16 0 -16 0 3 39 17 35 13 61 -11 61 -12 0
-15 -13 -15 -59 l0 -60 48 -3 c33 -2 47 -7 47 -18 0 -11 -11 -14 -47 -11 l-48
3 0 -3386 0 -3386 2679 0 c2134 0 2680 3 2684 13 4 9 6 9 6 0 1 -18 297 -18
304 0 4 9 6 9 6 0 1 -10 40 -13 162 -13 149 0 161 1 155 18 -6 16 -5 16 8 0
16 -21 32 -23 39 -5 4 9 6 9 6 0 1 -17 38 -17 44 0 4 9 6 9 6 0 1 -9 18 -13
50 -13 30 0 52 5 55 13 5 9 7 9 12 0 3 -7 16 -13 29 -13 13 0 26 6 29 13 5 9
7 9 12 0 7 -17 41 -17 47 0 4 9 8 8 16 -3 10 -13 12 -13 21 0 8 12 11 13 19 1
7 -11 9 -11 14 0 4 10 6 10 6 2 1 -15 41 -18 41 -3 0 6 -7 10 -15 10 -8 0 -15
5 -15 10 0 18 35 11 50 -10 16 -22 65 -27 73 -7 4 9 8 9 15 -1 6 -9 8 4 4 37
l-5 51 69 0 c91 0 97 11 81 145 -11 95 -11 95 -39 95 -24 0 -28 4 -28 30 0 28
2 30 40 30 23 0 40 5 40 11 0 8 17 10 51 7 31 -3 46 -2 37 3 -9 5 -68 7 -132
6 -103 -2 -116 -4 -116 -19 0 -14 -9 -18 -40 -18 -29 0 -40 -4 -40 -15 0 -11
11 -15 40 -15 44 0 50 -9 19 -28 -16 -10 -24 -11 -35 -1 -19 15 -30 4 -15 -15
10 -11 9 -19 -1 -35 -10 -16 -23 -21 -55 -21 -36 0 -43 -3 -43 -20 0 -11 -4
-20 -10 -20 -16 0 -12 60 5 66 11 5 15 22 15 70 0 50 3 64 15 64 11 0 15 -11
15 -40 0 -22 5 -40 10 -40 6 0 10 18 10 40 0 29 4 40 15 40 11 0 15 11 15 40
l0 40 -40 0 c-40 0 -40 0 -40 39 0 40 0 40 43 44 l42 4 -42 1 c-35 2 -43 6
-43 21 0 15 8 21 38 24 34 4 34 4 -5 3 -29 -1 -43 3 -43 11 0 7 -7 13 -15 13
-8 0 -15 -7 -15 -15 0 -8 -4 -15 -10 -15 -5 0 -10 7 -10 15 0 8 -5 15 -11 15
-6 0 -9 -16 -8 -38 1 -20 2 -56 1 -79 l-2 -43 -40 0 c-45 0 -54 14 -15 24 14
4 25 11 25 16 0 5 -11 12 -25 16 -20 5 -25 12 -25 39 0 20 -6 35 -15 39 -20 7
-19 23 3 30 9 3 -2 4 -25 2 -30 -3 -43 0 -43 9 0 8 9 11 24 8 13 -3 27 0 30 6
5 7 -5 11 -29 11 -24 0 -38 5 -42 17 -4 9 -1 19 5 21 17 5 15 49 -3 56 -11 4
-15 20 -15 56 0 27 -4 50 -10 50 -5 0 -10 -18 -10 -40 0 -29 -4 -40 -15 -40
-21 0 -19 -40 2 -56 10 -7 16 -14 13 -17 -3 -3 -39 -8 -80 -11 -53 -4 -68 -3
-52 4 19 8 22 16 20 50 -1 25 -7 40 -15 40 -7 0 -13 5 -13 10 0 6 7 10 15 10
8 0 15 5 15 10 0 6 -7 10 -15 10 -8 0 -15 5 -15 10 0 6 7 10 15 10 8 0 15 5
15 10 0 6 18 10 40 10 33 0 40 3 40 19 0 16 -8 21 -42 24 l-43 4 43 1 c23 1
42 7 42 12 0 6 -7 10 -15 10 -11 0 -15 11 -15 40 0 36 3 40 25 40 14 0 25 -4
25 -10 0 -5 9 -10 20 -10 11 0 20 5 20 10 0 6 -4 10 -10 10 -17 0 -50 39 -50
59 0 12 8 21 23 24 l22 4 -22 8 c-13 4 -23 15 -23 25 0 10 10 21 23 25 19 6
19 8 5 12 -10 2 -18 12 -19 21 -1 33 -18 -21 -18 -60 -1 -31 -5 -38 -20 -38
-16 0 -21 8 -24 43 l-4 42 -1 -42 c-1 -24 -6 -43 -12 -43 -5 0 -10 -9 -10 -20
0 -24 -34 -60 -56 -60 -8 0 -29 13 -46 29 -17 16 -37 27 -45 24 -7 -3 -13 1
-13 10 0 8 -5 17 -12 19 -9 3 -9 6 0 12 7 4 12 2 12 -3 0 -6 5 -11 10 -11 6 0
10 9 10 20 0 11 5 20 10 20 6 0 10 9 10 20 0 22 -26 28 -33 8 -4 -10 -7 -10
-18 0 -8 7 -14 18 -14 25 0 7 -7 12 -15 12 -8 0 -15 -5 -15 -12 0 -7 -6 -18
-13 -25 -10 -10 -12 -8 -12 9 0 18 -7 22 -42 26 l-43 4 43 1 c23 1 42 7 42 12
0 6 18 10 40 10 29 0 40 -4 40 -15 0 -16 9 -19 34 -9 46 18 -21 42 -115 43
-31 0 -77 5 -102 11 -25 5 -53 7 -61 4 -13 -5 -16 2 -16 35 0 39 1 41 25 35
20 -5 24 -3 19 10 -3 9 -10 16 -15 16 -5 0 -9 14 -9 30 0 21 5 30 16 30 14 0
16 8 11 54 -6 59 9 85 49 87 11 0 13 3 6 6 -8 3 -2 18 20 46 18 23 35 44 38
47 10 10 51 85 71 130 20 45 20 45 64 42 28 -3 45 0 45 7 0 6 -18 11 -40 11
-26 0 -40 5 -40 13 0 9 12 11 40 9 25 -3 40 0 40 7 0 6 -17 11 -39 11 l-39 0
15 31 c9 17 23 75 31 128 10 60 18 87 22 73 3 -13 5 19 6 70 0 51 6 118 12
148 7 30 16 91 21 135 17 143 93 706 111 820 6 39 13 99 16 135 3 36 8 72 11
80 4 8 7 26 9 40 1 14 9 81 19 150 9 69 25 195 35 280 19 154 54 421 85 640
69 494 77 615 51 733 -16 72 -79 218 -98 225 -4 2 -8 9 -8 14 0 6 -33 44 -74
84 -109 107 -171 134 -426 178 -80 14 -300 52 -490 85 -190 33 -365 65 -390
70 -25 6 -97 20 -160 31 -63 11 -164 29 -225 40 -60 11 -189 34 -285 51 -96
16 -227 39 -290 50 -63 11 -151 26 -195 34 -44 8 -195 34 -335 60 -140 25
-271 48 -290 50 -19 3 -55 9 -80 15 -25 5 -79 14 -120 20 -41 7 -105 18 -142
26 -194 41 -363 -13 -496 -158 -8 -9 -22 -14 -31 -11 -14 4 -14 3 -1 -6 12 -8
11 -13 -7 -33 -54 -59 -123 -228 -142 -349 -5 -35 -12 -80 -15 -99 -24 -139
-43 -273 -56 -395 -6 -55 -15 -120 -21 -145 -5 -25 -14 -83 -19 -130 -6 -47
-15 -107 -20 -135 -9 -45 -14 -96 -18 -192 -2 -30 -5 -33 -32 -33 -16 0 -30 5
-30 10 0 6 11 10 25 10 18 0 25 5 25 20 0 15 -7 20 -25 20 -14 0 -25 5 -25 10
0 6 -8 11 -17 11 -10 1 0 5 22 9 27 5 42 4 47 -4 4 -6 8 8 8 32 l0 42 -47 2
-48 1 43 4 c53 5 55 23 2 23 -22 0 -40 5 -40 10 0 6 18 10 40 10 54 0 51 20
-2 22 -34 1 -36 2 -13 5 29 4 30 6 27 43 -4 35 -2 40 17 40 16 0 21 -6 22 -27
l0 -28 12 23 c7 16 7 26 0 30 -14 10 -22 72 -16 121 9 63 20 49 16 -21 -2 -49
-1 -57 6 -35 9 26 14 82 12 116 -1 11 -4 11 -16 1 -12 -10 -15 -10 -16 1 0 8
-4 5 -10 -6 -6 -14 -7 -8 -3 23 4 27 2 42 -5 42 -6 0 -11 -5 -11 -10 0 -6 -8
-5 -20 2 -25 16 -40 -1 -40 -44 0 -16 -4 -28 -10 -28 -15 0 -12 -77 3 -83 6
-3 -7 -6 -30 -6 l-43 -1 2 48 1 47 4 -42 c3 -34 8 -43 22 -43 16 0 20 11 25
73 3 39 5 81 3 92 -2 18 3 20 48 16 31 -2 54 -9 62 -20 10 -13 12 -9 13 32 l0
47 -74 0 c-56 0 -75 -4 -80 -15 -12 -33 -26 -12 -26 41 l0 56 78 -4 c42 -3 60
-3 40 -1 -21 2 -38 8 -38 14 0 5 -18 9 -40 9 -22 0 -40 -4 -40 -10 0 -5 -12
-10 -26 -10 -22 0 -25 2 -14 15 7 8 19 15 28 15 8 0 13 3 10 6 -11 11 -78 -8
-78 -22 0 -8 -7 -14 -15 -14 -11 0 -15 -11 -15 -40 0 -29 4 -40 15 -40 11 0
15 -11 15 -40 0 -22 -4 -40 -10 -40 -5 0 -10 -18 -10 -40 0 -29 -5 -43 -20
-52 -25 -16 -26 -37 -2 -54 15 -12 15 -13 0 -14 -9 0 -19 6 -21 13 -4 9 -8 9
-15 -2 -8 -11 -14 -10 -33 8 l-23 22 28 24 c26 23 27 27 24 99 -3 67 -1 76 15
76 13 0 17 9 17 40 0 38 -1 40 -32 40 -18 1 -44 10 -57 20 l-23 20 23 20 c20
16 21 19 7 20 -14 0 -18 8 -18 34 0 19 -3 41 -6 50 -5 13 1 16 33 16 l40 0 -2
-47 c-1 -30 -1 -34 2 -11 3 31 8 37 31 40 l27 3 -24 24 c-16 16 -26 20 -29 13
-2 -7 -21 -12 -43 -12 -32 0 -39 3 -39 20 0 17 7 20 43 21 l42 2 -50 7 c-87
14 -115 12 -115 -7 -1 -11 -8 -4 -20 18 -11 20 -28 39 -40 42 -24 6 -25 0 -4
-24 10 -11 14 -25 10 -36 -6 -15 -8 -15 -17 -3 -7 11 -8 7 -4 -15 3 -16 3 -25
-1 -18 -3 7 -12 9 -20 6 -9 -3 -14 2 -14 16 0 19 -6 21 -64 21 -41 0 -66 -4
-68 -12 -3 -9 -6 -9 -12 0 -4 7 -2 12 3 12 6 0 11 16 11 36 0 37 18 64 43 64
9 0 17 -6 20 -12 2 -8 8 -9 13 -4 5 5 4 11 -3 13 -17 6 -17 40 -1 46 8 2 9 8
4 13 -5 5 -11 4 -13 -3 -7 -20 -37 -15 -53 7 -10 14 -26 20 -52 20 -38 0 -38
0 -38 40 0 22 5 40 10 40 6 0 10 9 10 20 0 11 -5 20 -11 20 -6 0 -8 7 -5 16 3
8 2 12 -4 9 -6 -3 -10 -24 -10 -46 0 -32 -3 -39 -19 -39 -16 0 -21 8 -24 43
l-4 42 -1 -42 c-2 -42 -22 -63 -22 -23 0 11 -7 20 -15 20 -8 0 -15 9 -15 20 0
18 -7 20 -75 20 l-75 0 0 40 c0 22 4 40 9 40 4 0 8 18 8 40 0 22 -4 40 -8 40
-13 0 -11 77 3 99 23 37 -16 76 -53 52 -12 -7 -19 -7 -19 -1 0 5 -18 10 -39
10 -39 0 -40 -1 -44 -37 -2 -22 -3 -16 -2 12 2 42 -1 53 -26 77 -15 15 -32 28
-38 28 -6 0 -11 18 -11 40 0 33 3 40 20 40 24 0 26 13 5 30 -24 20 -30 4 -30
-71 0 -65 -9 -87 -21 -54 -4 8 -15 15 -25 15 -15 0 -19 7 -19 40 l0 40 -44 0
-45 0 -4 -42 -4 -43 -1 43 c-2 40 -4 42 -32 42 -34 0 -31 12 -36 -152 -2 -70
1 -88 12 -88 8 0 11 -6 8 -15 -4 -8 -10 -15 -15 -15 -5 0 -9 7 -9 15 0 8 -4
15 -10 15 -6 0 -10 33 -10 79 l0 80 -32 4 c-29 3 -27 4 10 5 40 2 42 4 42 32
0 28 -2 30 -40 30 -29 0 -40 4 -40 15 0 11 11 15 40 15 38 0 40 2 40 30 0 21
5 30 16 30 14 0 14 3 4 15 -7 8 -21 15 -31 15 -11 0 -19 7 -19 16 0 11 6 15
20 11 10 -3 24 1 31 9 9 11 6 14 -17 15 -16 0 -23 3 -17 6 15 5 18 60 4 65 -4
2 -5 12 0 23 6 17 8 17 8 3 2 -37 21 -16 21 22 0 36 -2 40 -25 40 -16 0 -25
-6 -25 -15 0 -8 -4 -15 -10 -15 -5 0 -10 7 -10 15 0 19 -20 19 -45 1 -18 -13
-18 -14 2 -24 21 -12 38 -52 22 -52 -5 0 -9 -13 -9 -29 0 -21 6 -32 20 -36 11
-3 20 -11 20 -16 0 -14 -30 -11 -46 5 -17 18 -19 82 -1 90 6 4 1 4 -13 1 -14
-2 -33 -5 -42 -5 -11 0 -18 -8 -18 -18 0 -14 -8 -17 -40 -17 -33 0 -40 3 -40
19 0 16 3 17 12 8 18 -18 40 -14 72 12 20 17 25 26 16 31 -7 4 -16 2 -20 -5
-6 -9 -9 -9 -15 -1 -11 19 15 41 55 47 34 6 38 10 44 42 3 20 3 38 1 41 -3 2
-5 -3 -5 -12 0 -22 -16 -22 -28 -1 -6 11 -18 15 -35 12 -18 -4 -24 -1 -20 9 3
8 21 13 44 13 37 0 39 2 39 30 0 31 -8 35 -57 31 -13 -1 -23 3 -23 9 0 5 5 10
10 10 6 0 10 9 10 20 0 11 -4 20 -10 20 -5 0 -10 5 -10 11 0 6 10 9 23 6 12
-3 31 -1 42 4 14 7 2 8 -37 5 -43 -3 -58 -1 -58 8 0 8 -7 19 -15 26 -13 11
-15 8 -15 -14 0 -14 -4 -26 -10 -26 -5 0 -10 18 -10 40 0 22 -4 40 -9 40 -5 0
-11 20 -13 45 -2 31 1 45 9 45 7 0 13 7 13 15 0 8 -7 15 -15 15 -9 0 -18 7
-21 15 -9 23 -44 19 -44 -5z m60 -225 c0 -8 -4 -15 -10 -15 -5 0 -10 7 -10 15
0 8 5 15 10 15 6 0 10 -7 10 -15z m17 -57 c-3 -8 -6 -5 -6 6 -1 11 2 17 5 13
3 -3 4 -12 1 -19z m63 -128 c0 -13 -7 -20 -20 -20 -13 0 -20 7 -20 20 0 13 7
20 20 20 13 0 20 -7 20 -20z m48 -28 c2 -7 -5 -12 -17 -12 -14 0 -19 5 -14 15
6 17 25 15 31 -3z m-56 -24 c-9 -9 -15 -9 -24 0 -9 9 -7 12 12 12 19 0 21 -3
12 -12z m3 -58 c3 -5 -3 -10 -15 -10 -12 0 -18 5 -15 10 3 6 10 10 15 10 5 0
12 -4 15 -10z m175 -50 c0 -5 -13 -10 -30 -10 -16 0 -30 5 -30 10 0 6 14 10
30 10 17 0 30 -4 30 -10z m-228 -60 c-3 -24 -9 -30 -28 -30 -21 0 -23 3 -14
20 8 15 29 33 46 40 0 0 -1 -13 -4 -30z m21 -81 c5 -17 11 -20 31 -15 30 7 33
0 10 -26 -16 -17 -18 -17 -40 8 -24 25 -32 54 -15 54 5 0 11 -10 14 -21z m7
-143 c0 -2 -7 -6 -15 -10 -8 -3 -15 -1 -15 4 0 6 7 10 15 10 8 0 15 -2 15 -4z
m370 -20 c0 -13 7 -26 15 -30 26 -10 16 -26 -15 -26 -28 0 -30 2 -30 40 0 29
4 40 15 40 9 0 15 -9 15 -24z m-320 -16 c0 -5 -2 -10 -4 -10 -3 0 -8 5 -11 10
-3 6 -1 10 4 10 6 0 11 -4 11 -10z m60 -50 c0 -5 -9 -10 -20 -10 -11 0 -20 5
-20 10 0 6 9 10 20 10 11 0 20 -4 20 -10z m180 -16 c0 -27 -26 -61 -38 -49 -4
4 -1 10 6 12 6 3 12 18 12 34 0 16 5 29 10 29 6 0 10 -12 10 -26z m168 -24
c-3 -27 0 -54 6 -60 7 -7 6 -14 -2 -22 -9 -9 -12 -7 -12 10 0 19 -5 22 -40 22
-22 0 -40 5 -40 10 0 6 18 10 40 10 l40 0 0 40 c0 22 3 40 6 40 4 0 4 -22 2
-50z m208 19 c10 -17 -13 -36 -27 -22 -12 12 -4 33 11 33 5 0 12 -5 16 -11z
m-556 -39 c0 -5 -9 -10 -20 -10 -11 0 -20 5 -20 10 0 6 9 10 20 10 11 0 20 -4
20 -10z m515 0 c3 -5 1 -10 -4 -10 -6 0 -11 5 -11 10 0 6 2 10 4 10 3 0 8 -4
11 -10z m-682 -17 c-7 -2 -19 -2 -25 0 -7 3 -2 5 12 5 14 0 19 -2 13 -5z m40
-8 c4 -8 2 -17 -3 -20 -6 -4 -10 3 -10 14 0 25 6 27 13 6z m70 -5 c-3 -11 -9
-17 -14 -15 -10 7 -1 35 11 35 5 0 6 -9 3 -20z m449 8 c-9 -9 -15 -9 -24 0 -9
9 -7 12 12 12 19 0 21 -3 12 -12z m28 -30 c0 -16 -3 -19 -11 -11 -6 6 -8 16
-5 22 11 17 16 13 16 -11z m-580 2 c0 -5 -9 -10 -20 -10 -11 0 -20 5 -20 10 0
6 9 10 20 10 11 0 20 -4 20 -10z m154 -25 c3 -8 10 -15 16 -15 5 0 10 7 10 15
0 8 4 15 9 15 5 0 11 -7 15 -15 3 -9 0 -15 -9 -15 -8 0 -15 -4 -15 -9 0 -5
-13 -4 -29 2 -17 6 -27 16 -24 24 7 17 20 17 27 -2z m401 -5 c3 -5 -3 -10 -15
-10 -12 0 -18 5 -15 10 3 6 10 10 15 10 5 0 12 -4 15 -10z m-562 -7 c-7 -2
-19 -2 -25 0 -7 3 -2 5 12 5 14 0 19 -2 13 -5z m613 -42 c-15 -16 -15 -20 -1
-31 16 -13 11 -30 -9 -30 -8 0 -12 16 -12 49 1 44 3 48 19 39 17 -9 17 -11 3
-27z m44 29 c0 -5 7 -10 15 -10 8 0 15 5 15 10 0 6 8 10 18 10 16 -1 16 -1 0
-14 -10 -7 -18 -19 -18 -26 0 -7 8 -19 18 -26 11 -9 13 -13 4 -14 -15 0 -35
18 -45 40 -4 8 -5 3 -4 -12 4 -24 2 -26 -15 -17 -18 10 -18 12 -4 28 12 13 13
20 4 29 -9 9 -9 12 0 12 7 0 12 -4 12 -10z m-530 -24 c0 -3 -4 -8 -10 -11 -5
-3 -10 -1 -10 4 0 6 5 11 10 11 6 0 10 -2 10 -4z m300 -56 c0 -5 -4 -10 -9
-10 -6 0 -13 5 -16 10 -3 6 1 10 9 10 9 0 16 -4 16 -10z m134 -36 c10 -26 7
-34 -14 -34 -11 0 -20 4 -20 9 0 17 12 41 20 41 4 0 11 -7 14 -16z m-134 -29
c0 -11 -11 -15 -40 -15 -22 0 -40 -5 -40 -11 0 -5 -4 -7 -10 -4 -21 13 -9 25
24 25 19 0 38 5 41 10 9 15 25 12 25 -5z m240 -5 c0 -17 7 -20 40 -20 29 0 40
-4 40 -15 0 -11 -11 -15 -40 -15 -29 0 -40 4 -40 15 0 11 -11 15 -40 15 -22 0
-40 5 -40 10 0 6 9 10 19 10 11 0 23 5 26 10 11 18 35 11 35 -10z m-380 -9 c0
-6 -4 -13 -10 -16 -5 -3 -10 1 -10 9 0 9 5 16 10 16 6 0 10 -4 10 -9z m195 -1
c-3 -5 -10 -10 -16 -10 -5 0 -9 5 -9 10 0 6 7 10 16 10 8 0 12 -4 9 -10z m-15
-68 c-12 -4 -40 23 -40 38 0 7 11 2 25 -11 13 -13 20 -25 15 -27z m-352 -17
c-3 -3 -9 2 -12 12 -6 14 -5 15 5 6 7 -7 10 -15 7 -18z m82 -29 c0 -26 -6 -18
-14 19 -5 22 -4 26 4 15 5 -8 10 -24 10 -34z m317 22 c-3 -8 -6 -5 -6 6 -1 11
2 17 5 13 3 -3 4 -12 1 -19z m70 0 c-3 -8 -6 -5 -6 6 -1 11 2 17 5 13 3 -3 4
-12 1 -19z m302 2 l23 -20 -23 -20 c-16 -13 -19 -19 -9 -20 10 0 11 -3 3 -11
-8 -8 -16 -7 -31 2 -20 12 -20 13 2 31 l21 18 -24 20 c-20 18 -21 20 -5 20 11
-1 30 -10 43 -20z m-622 -32 c-3 -7 -5 -2 -5 12 0 14 2 19 5 13 2 -7 2 -19 0
-25z m-107 -18 c0 -5 -4 -10 -10 -10 -5 0 -10 5 -10 10 0 6 5 10 10 10 6 0 10
-4 10 -10z m538 -22 c-6 -18 -28 -21 -28 -4 0 9 7 16 16 16 9 0 14 -5 12 -12z
m262 -28 c0 -22 -4 -40 -10 -40 -5 0 -10 18 -10 40 0 22 5 40 10 40 6 0 10
-18 10 -40z m116 26 c31 -31 4 -66 -50 -66 -35 0 -36 1 -36 40 0 39 1 40 36
40 19 0 42 -6 50 -14z m-639 -38 c-3 -7 -5 -2 -5 12 0 14 2 19 5 13 2 -7 2
-19 0 -25z m43 12 c0 -11 -4 -20 -10 -20 -5 0 -10 9 -10 20 0 11 5 20 10 20 6
0 10 -9 10 -20z m27 -12 c-3 -7 -5 -2 -5 12 0 14 2 19 5 13 2 -7 2 -19 0 -25z
m339 21 c3 -6 1 -16 -5 -22 -8 -8 -11 -6 -11 7 0 19 -21 18 -27 -1 -7 -19 36
-37 53 -22 11 9 18 9 26 1 9 -9 7 -12 -8 -12 -21 0 -41 -28 -46 -66 -2 -16 -8
-19 -28 -14 l-25 6 28 26 c32 30 35 48 6 48 -11 0 -29 5 -40 10 -13 7 -19 7
-19 0 0 -5 -7 -10 -16 -10 -27 0 -10 24 24 35 18 5 32 13 32 17 0 12 48 10 56
-3z m64 -11 c0 -16 -3 -19 -11 -11 -6 6 -8 16 -5 22 11 17 16 13 16 -11z
m-373 -44 c-3 -3 -12 -4 -19 -1 -8 3 -5 6 6 6 11 1 17 -2 13 -5z m-3 -43 c3
-5 -1 -11 -9 -15 -9 -3 -15 0 -15 9 0 16 16 20 24 6z m374 -46 c-2 -9 -8 -12
-17 -6 -11 7 -11 13 0 32 11 20 14 21 17 7 2 -10 2 -25 0 -33z m-668 5 c0 -5
-4 -10 -10 -10 -5 0 -10 5 -10 10 0 6 5 10 10 10 6 0 10 -4 10 -10z m350 0 c0
-5 -7 -7 -15 -4 -8 4 -15 8 -15 10 0 2 7 4 15 4 8 0 15 -4 15 -10z m370 -29
c0 -31 -4 -41 -21 -46 -11 -4 -23 -4 -26 -1 -4 3 1 6 10 6 13 0 17 9 17 40 0
22 5 40 10 40 6 0 10 -18 10 -39z m50 35 c0 -3 -4 -8 -10 -11 -5 -3 -10 -1
-10 4 0 6 5 11 10 11 6 0 10 -2 10 -4z m36 -27 c10 -17 -13 -36 -27 -22 -12
12 -4 33 11 33 5 0 12 -5 16 -11z m113 -50 c-8 -5 -21 -8 -29 -8 -11 1 -10 3
3 6 11 3 17 15 18 36 l1 32 10 -29 c8 -22 7 -30 -3 -37z m-629 47 c0 -3 -4 -8
-10 -11 -5 -3 -10 -1 -10 4 0 6 5 11 10 11 6 0 10 -2 10 -4z m270 -6 c0 -5 -4
-10 -10 -10 -5 0 -10 5 -10 10 0 6 5 10 10 10 6 0 10 -4 10 -10z m490 -3 c0
-7 -5 -18 -12 -25 -9 -9 -7 -12 13 -13 13 -1 -1 -5 -31 -9 -30 -5 -61 -4 -70
1 -11 6 -6 8 18 9 33 0 62 19 62 39 0 6 5 11 10 11 6 0 10 -6 10 -13z m-285
-27 c3 -5 1 -10 -4 -10 -6 0 -11 5 -11 10 0 6 2 10 4 10 3 0 8 -4 11 -10z m65
0 c0 -5 -5 -10 -11 -10 -5 0 -7 5 -4 10 3 6 8 10 11 10 2 0 4 -4 4 -10z m-380
-14 c0 -3 -4 -8 -10 -11 -5 -3 -10 -1 -10 4 0 6 5 11 10 11 6 0 10 -2 10 -4z
m670 -36 c0 -22 -4 -40 -10 -40 -5 0 -10 18 -10 40 0 22 5 40 10 40 6 0 10
-18 10 -40z m-610 -2 c0 -16 -3 -19 -11 -11 -6 6 -8 16 -5 22 11 17 16 13 16
-11z m100 18 c0 -3 -4 -8 -10 -11 -5 -3 -10 -1 -10 4 0 6 5 11 10 11 6 0 10
-2 10 -4z m60 -6 c0 -5 7 -10 15 -10 8 0 15 -4 15 -10 0 -17 -25 -11 -38 10
-7 12 -8 20 -2 20 5 0 10 -4 10 -10z m80 0 c0 -5 -7 -10 -15 -10 -8 0 -15 5
-15 10 0 6 7 10 15 10 8 0 15 -4 15 -10z m110 -10 c0 -5 -7 -10 -15 -10 -8 0
-15 5 -15 10 0 6 7 10 15 10 8 0 15 -4 15 -10z m173 -17 c-27 -3 -43 -9 -43
-17 0 -9 -9 -12 -27 -8 l-28 5 30 13 c17 7 48 13 70 12 l40 -1 -42 -4z m-588
-13 c3 -5 1 -10 -4 -10 -6 0 -11 5 -11 10 0 6 2 10 4 10 3 0 8 -4 11 -10z
m252 -23 c-6 -19 -24 -18 -29 1 -4 15 -1 18 14 14 10 -2 17 -9 15 -15z m67 14
c15 -6 16 -10 7 -16 -7 -4 -16 -3 -20 2 -3 6 -13 13 -21 16 -13 5 -13 5 0 6 8
0 24 -4 34 -8z m143 3 c-3 -3 -12 -4 -19 -1 -8 3 -5 6 6 6 11 1 17 -2 13 -5z
m146 -31 c-13 -2 -33 -2 -45 0 -13 2 -3 4 22 4 25 0 35 -2 23 -4z m-113 -18
c0 -8 -7 -15 -15 -15 -8 0 -15 7 -15 15 0 8 7 15 15 15 8 0 15 -7 15 -15z
m-110 -5 c0 -5 -2 -10 -4 -10 -3 0 -8 5 -11 10 -3 6 -1 10 4 10 6 0 11 -4 11
-10z m-80 -15 c0 -8 -6 -15 -14 -15 -8 0 -16 -6 -19 -12 -2 -7 -7 -10 -11 -6
-8 7 23 48 36 48 5 0 8 -7 8 -15z m-400 -5 c0 -5 -5 -10 -11 -10 -5 0 -7 5 -4
10 3 6 8 10 11 10 2 0 4 -4 4 -10z m719 -6 c2 -2 -23 -4 -57 -4 -35 0 -62 4
-62 10 0 9 108 3 119 -6z m-266 -11 c-7 -2 -19 -2 -25 0 -7 3 -2 5 12 5 14 0
19 -2 13 -5z m127 3 c0 -3 -4 -8 -10 -11 -5 -3 -10 -1 -10 4 0 6 5 11 10 11 6
0 10 -2 10 -4z m200 -36 c0 -29 -4 -40 -15 -40 -11 0 -15 11 -15 40 0 29 4 40
15 40 11 0 15 -11 15 -40z m-160 15 c0 -8 -7 -15 -15 -15 -16 0 -20 12 -8 23
11 12 23 8 23 -8z m-156 -24 c8 -12 -20 -22 -39 -15 -19 8 -9 24 15 24 10 0
21 -4 24 -9z m116 -6 c0 -8 -4 -15 -10 -15 -5 0 -10 7 -10 15 0 8 5 15 10 15
6 0 10 -7 10 -15z m-493 -17 c-3 -8 -6 -5 -6 6 -1 11 2 17 5 13 3 -3 4 -12 1
-19z m70 0 c-3 -8 -6 -5 -6 6 -1 11 2 17 5 13 3 -3 4 -12 1 -19z m458 -8 c-3
-5 -10 -10 -16 -10 -5 0 -9 5 -9 10 0 6 7 10 16 10 8 0 12 -4 9 -10z m125 -10
c0 -5 -4 -10 -10 -10 -5 0 -10 5 -10 10 0 6 5 10 10 10 6 0 10 -4 10 -10z
m270 -30 c0 -22 -4 -40 -10 -40 -5 0 -10 18 -10 40 0 22 5 40 10 40 6 0 10
-18 10 -40z m190 10 c0 -17 -7 -20 -40 -20 -33 0 -40 3 -40 20 0 17 7 20 40
20 33 0 40 -3 40 -20z m-400 -10 c0 -11 -4 -20 -10 -20 -5 0 -10 9 -10 20 0
11 5 20 10 20 6 0 10 -9 10 -20z m-560 0 c0 -5 -4 -10 -10 -10 -5 0 -10 5 -10
10 0 6 5 10 10 10 6 0 10 -4 10 -10z m618 -23 c2 -12 -3 -17 -17 -17 -12 0
-21 6 -21 13 0 31 32 34 38 4z m-126 -44 c-7 -65 -12 -67 -12 -5 0 29 4 52 9
52 5 0 6 -21 3 -47z m-101 27 c5 0 9 -7 9 -15 0 -21 -12 -19 -34 7 -16 19 -17
20 -1 15 9 -4 21 -7 26 -7z m-371 -4 c0 -3 -4 -8 -10 -11 -5 -3 -10 -1 -10 4
0 6 5 11 10 11 6 0 10 -2 10 -4z m60 -6 c0 -5 -2 -10 -4 -10 -3 0 -8 5 -11 10
-3 6 -1 10 4 10 6 0 11 -4 11 -10z m457 -52 c-2 -13 -4 -3 -4 22 0 25 2 35 4
23 2 -13 2 -33 0 -45z m-487 22 c0 -5 -4 -10 -10 -10 -5 0 -10 5 -10 10 0 6 5
10 10 10 6 0 10 -4 10 -10z m870 -25 c0 -17 -4 -23 -14 -19 -8 3 -12 13 -9 25
7 27 23 24 23 -6z m-572 -3 c2 -7 -3 -12 -12 -12 -9 0 -16 7 -16 16 0 17 22
14 28 -4z m-58 -22 c0 -5 -4 -10 -10 -10 -5 0 -10 5 -10 10 0 6 5 10 10 10 6
0 10 -4 10 -10z m460 -30 c0 -22 -4 -40 -10 -40 -5 0 -10 18 -10 40 0 22 5 40
10 40 6 0 10 -18 10 -40z m40 0 c0 -22 -4 -40 -10 -40 -5 0 -10 18 -10 40 0
22 5 40 10 40 6 0 10 -18 10 -40z m120 -10 l8 25 1 -27 c1 -19 -4 -28 -14 -28
-11 0 -15 10 -13 38 l1 37 5 -35 c5 -33 5 -34 12 -10z m-830 20 c0 -5 -2 -10
-4 -10 -3 0 -8 5 -11 10 -3 6 -1 10 4 10 6 0 11 -4 11 -10z m-74 -36 c-21 -20
-28 -17 -16 6 6 11 15 18 21 15 5 -4 3 -12 -5 -21z m284 -4 c0 -5 -4 -10 -10
-10 -5 0 -10 5 -10 10 0 6 5 10 10 10 6 0 10 -4 10 -10z m668 -44 c10 -11 -19
-25 -47 -22 -15 2 -27 10 -29 20 -3 14 3 16 33 13 19 -3 39 -7 43 -11z m-391
-38 c-3 -8 -6 -5 -6 6 -1 11 2 17 5 13 3 -3 4 -12 1 -19z m49 -5 c-10 -10 -19
5 -10 18 6 11 8 11 12 0 2 -7 1 -15 -2 -18z m263 3 c-2 -2 -26 -6 -53 -9 -30
-3 -43 -1 -35 4 13 8 97 13 88 5z m-879 -26 c0 -5 -7 -10 -16 -10 -8 0 -12 5
-9 10 3 6 10 10 16 10 5 0 9 -4 9 -10z m2571 -15 c289 -75 520 -340 611 -700
20 -78 23 -116 23 -285 0 -183 -2 -202 -29 -305 -107 -408 -395 -688 -732
-712 -238 -17 -471 101 -635 320 -131 176 -199 366 -219 606 -21 262 39 514
173 724 52 81 166 197 247 251 100 68 175 95 320 120 42 7 182 -4 241 -19z
m-2271 -5 c0 -5 -4 -10 -10 -10 -5 0 -10 5 -10 10 0 6 5 10 10 10 6 0 10 -4
10 -10z m485 -10 c10 -11 15 -23 12 -27 -4 -3 -7 -1 -7 5 0 7 -13 12 -30 12
-16 0 -30 -5 -30 -12 0 -6 -3 -8 -7 -5 -6 7 25 47 37 47 4 0 15 -9 25 -20z
m-838 -26 c-3 -3 -12 -4 -19 -1 -8 3 -5 6 6 6 11 1 17 -2 13 -5z m338 -4 c3
-6 -1 -7 -9 -4 -18 7 -21 14 -7 14 6 0 13 -4 16 -10z m-45 -15 c0 -9 -6 -12
-15 -9 -8 4 -15 10 -15 15 0 5 7 9 15 9 8 0 15 -7 15 -15z m137 9 c-3 -3 -12
-4 -19 -1 -8 3 -5 6 6 6 11 1 17 -2 13 -5z m183 -9 c0 -9 -6 -12 -15 -9 -8 4
-15 10 -15 15 0 5 7 9 15 9 8 0 15 -7 15 -15z m-163 -27 c-3 -8 -6 -5 -6 6 -1
11 2 17 5 13 3 -3 4 -12 1 -19z m-67 -4 c0 -8 -4 -12 -10 -9 -5 3 -10 10 -10
16 0 5 5 9 10 9 6 0 10 -7 10 -16z m40 -39 c0 -8 -4 -15 -9 -15 -5 0 -11 7
-15 15 -3 9 0 15 9 15 8 0 15 -7 15 -15z m113 -15 c-3 -11 -9 -20 -14 -20 -12
0 -11 17 1 25 6 4 7 11 4 17 -4 6 -2 8 4 5 5 -4 8 -16 5 -27z m-63 16 c0 -3
-4 -8 -10 -11 -5 -3 -10 -1 -10 4 0 6 5 11 10 11 6 0 10 -2 10 -4z m540 -22
c0 -11 -5 -14 -16 -10 -9 3 -28 7 -42 7 -23 1 -22 3 8 9 19 4 38 8 43 9 4 0 7
-6 7 -15z m-535 -24 c3 -5 -1 -10 -9 -10 -9 0 -16 5 -16 10 0 6 4 10 9 10 6 0
13 -4 16 -10z m425 -14 c0 -15 -37 -32 -47 -22 -4 3 1 6 10 6 10 0 17 7 17 15
0 8 5 15 10 15 6 0 10 -6 10 -14z m-150 -35 c0 -11 -4 -23 -10 -26 -6 -4 -10
5 -10 19 0 14 5 26 10 26 6 0 10 -9 10 -19z m180 -11 c0 -5 -7 -10 -15 -10 -8
0 -15 5 -15 10 0 6 7 10 15 10 8 0 15 -4 15 -10z m-50 -20 c0 -5 -7 -10 -15
-10 -8 0 -15 5 -15 10 0 6 7 10 15 10 8 0 15 -4 15 -10z m47 -26 c-3 -3 -12
-4 -19 -1 -8 3 -5 6 6 6 11 1 17 -2 13 -5z m-367 -8 c0 -2 -7 -9 -15 -16 -12
-10 -15 -10 -15 4 0 9 7 16 15 16 8 0 15 -2 15 -4z m-240 -26 c0 -5 -2 -10 -4
-10 -3 0 -8 5 -11 10 -3 6 -1 10 4 10 6 0 11 -4 11 -10z m619 -67 c0 -10 -4
-27 -8 -37 -7 -18 -8 -18 -14 5 -10 37 -8 49 8 49 8 0 15 -8 14 -17z m58 -15
c-3 -18 -9 -52 -12 -76 -5 -32 -11 -42 -23 -40 -10 2 -16 -3 -14 -9 1 -7 -2
-13 -8 -13 -5 0 -10 9 -10 21 0 11 4 18 9 15 5 -3 14 1 21 9 10 12 9 15 -4 15
-9 0 -16 7 -16 15 0 8 5 15 10 15 6 0 10 -5 10 -11 0 -5 5 -7 12 -3 9 6 9 9 0
12 -7 2 -12 16 -12 30 0 19 3 23 9 14 6 -10 10 -7 15 12 9 37 19 32 13 -6z
m-557 12 c8 -5 11 -10 5 -10 -5 0 -17 5 -25 10 -8 5 -10 10 -5 10 6 0 17 -5
25 -10z m196 -68 c-8 -9 -19 -12 -23 -8 -5 5 -2 11 5 13 6 3 12 13 12 22 0 27
15 36 18 11 2 -13 -3 -30 -12 -38z m184 48 c0 -5 -4 -10 -10 -10 -5 0 -10 5
-10 10 0 6 5 10 10 10 6 0 10 -4 10 -10z m-420 -20 c8 -5 11 -10 5 -10 -5 0
-17 5 -25 10 -8 5 -10 10 -5 10 6 0 17 -5 25 -10z m290 -70 c0 -5 -2 -10 -4
-10 -3 0 -8 5 -11 10 -3 6 -1 10 4 10 6 0 11 -4 11 -10z m275 -141 c-9 -57
-18 -133 -21 -168 -2 -36 -7 -67 -10 -70 -4 -3 -3 37 1 89 5 52 9 117 10 143
2 26 5 51 9 54 3 3 -2 12 -12 19 -16 12 -15 13 6 14 14 0 22 6 22 17 0 9 2 14
5 11 3 -3 -2 -52 -10 -109z m-95 27 c0 -3 -4 -8 -10 -11 -5 -3 -10 -1 -10 4 0
6 5 11 10 11 6 0 10 -2 10 -4z m69 -23 c0 -16 -3 -22 -6 -13 -3 8 -10 21 -16
28 -7 8 -5 12 7 12 11 0 16 -8 15 -27z m-74 -43 c3 -5 1 -10 -4 -10 -6 0 -11
5 -11 10 0 6 2 10 4 10 3 0 8 -4 11 -10z m65 0 c0 -5 -5 -10 -11 -10 -5 0 -7
5 -4 10 3 6 8 10 11 10 2 0 4 -4 4 -10z m-243 -112 c-3 -8 -6 -5 -6 6 -1 11 2
17 5 13 3 -3 4 -12 1 -19z m-67 -43 c0 -8 -4 -15 -10 -15 -5 0 -7 7 -4 15 4 8
8 15 10 15 2 0 4 -7 4 -15z m310 -107 c-1 -26 -3 -30 -10 -16 -6 9 -7 23 -4
32 9 25 14 19 14 -16z m-10 -77 c0 -6 -4 -13 -10 -16 -5 -3 -10 1 -10 9 0 9 5
16 10 16 6 0 10 -4 10 -9z m-223 -83 c-3 -7 -5 -2 -5 12 0 14 2 19 5 13 2 -7
2 -19 0 -25z m70 -19 c1 -19 1 -20 -4 -4 -3 11 -10 24 -17 28 -7 6 -6 7 4 4 8
-2 16 -14 17 -28z m134 -16 c-9 -16 -10 -15 -11 8 0 14 3 29 8 33 12 12 14
-22 3 -41z m-24 -10 c-3 -10 -5 -4 -5 12 0 17 2 24 5 18 2 -7 2 -21 0 -30z
m-10 -215 c-3 -7 -5 -2 -5 12 0 14 2 19 5 13 2 -7 2 -19 0 -25z m-66 -493
l-11 -40 5 49 c3 27 6 65 7 85 1 32 2 31 5 -9 2 -25 -1 -63 -6 -85z m1996
-1571 c-3 -3 -12 -4 -19 -1 -8 3 -5 6 6 6 11 1 17 -2 13 -5z m53 -16 c0 -4 -4
-8 -9 -8 -6 0 -12 4 -15 8 -3 5 1 9 9 9 8 0 15 -4 15 -9z m186 -36 c-10 -2
-22 0 -28 6 -6 6 0 7 19 4 21 -5 23 -7 9 -10z m1737 -19 c-3 -10 -15 -26 -27
-36 l-21 -18 23 6 c13 4 22 2 22 -4 0 -11 -8 -14 -50 -15 -20 -1 -26 -7 -28
-31 l-4 -30 24 23 c13 12 27 22 31 22 12 0 8 -45 -5 -58 -15 -15 -48 -16 -48
-2 0 6 -4 10 -10 10 -5 0 -10 -10 -10 -22 0 -13 -5 -30 -10 -38 -9 -13 -11
-13 -20 0 -16 24 -12 37 17 58 16 11 24 24 20 29 -5 4 -15 -1 -23 -11 -10 -15
-17 -17 -25 -9 -12 12 -39 7 -39 -7 0 -5 6 -10 13 -13 6 -2 0 -2 -14 0 -20 3
-28 -1 -32 -16 -3 -11 -13 -20 -23 -20 -31 1 -69 -7 -83 -16 -10 -5 -12 -4 -7
3 4 7 2 12 -3 12 -6 0 -11 -4 -11 -8 0 -14 -241 -13 -300 1 -30 7 -49 16 -44
20 6 3 28 1 50 -5 58 -16 321 -5 359 15 17 9 57 28 90 42 33 15 62 30 65 34 3
3 24 19 48 34 24 15 51 37 60 47 20 25 23 25 15 3z m-1560 -40 c-7 -2 -21 -2
-30 0 -10 3 -4 5 12 5 17 0 24 -2 18 -5z m200 -10 c-7 -2 -19 -2 -25 0 -7 3
-2 5 12 5 14 0 19 -2 13 -5z m-50 -20 c-7 -2 -19 -2 -25 0 -7 3 -2 5 12 5 14
0 19 -2 13 -5z m240 -10 c-7 -2 -19 -2 -25 0 -7 3 -2 5 12 5 14 0 19 -2 13 -5z
m47 -19 c0 -2 -7 -4 -15 -4 -8 0 -15 4 -15 10 0 5 7 7 15 4 8 -4 15 -8 15 -10z
m60 -4 c12 -8 11 -10 -7 -10 -12 0 -25 5 -28 10 -8 13 15 13 35 0z m225 -36
c61 -9 117 -21 125 -26 12 -7 10 -8 -5 -4 -11 3 -52 7 -92 10 -40 2 -77 7 -83
11 -7 4 -35 5 -63 3 -29 -3 -42 -3 -29 -1 12 2 22 8 22 13 0 5 -10 11 -22 13
-44 8 38 -2 147 -19z m-208 0 c-3 -3 -12 -4 -19 -1 -8 3 -5 6 6 6 11 1 17 -2
13 -5z m387 -79 c-4 -9 -18 -14 -38 -14 -30 2 -30 2 -3 6 15 2 25 9 22 14 -4
5 1 9 9 9 10 0 13 -6 10 -15z m416 6 c0 -9 -52 -22 -60 -15 -7 7 23 24 43 24
9 0 17 -4 17 -9z m80 -11 c0 -17 -7 -20 -40 -20 -38 0 -40 -2 -40 -29 0 -28 3
-30 43 -34 l42 -4 -47 -1 -48 -2 0 40 c0 37 2 40 29 40 16 0 31 6 35 15 8 22
26 18 26 -5z m-432 3 c-10 -2 -26 -2 -35 0 -10 3 -2 5 17 5 19 0 27 -2 18 -5z
m225 0 c-7 -2 -21 -2 -30 0 -10 3 -4 5 12 5 17 0 24 -2 18 -5z m-33 -19 c0 -2
-18 -4 -40 -4 -22 0 -40 3 -40 8 0 4 18 6 40 4 22 -2 40 -6 40 -8z m-373 0
c-3 -3 -12 -4 -19 -1 -8 3 -5 6 6 6 11 1 17 -2 13 -5z m163 -4 c0 -5 -2 -10
-4 -10 -3 0 -8 5 -11 10 -3 6 -1 10 4 10 6 0 11 -4 11 -10z m300 -27 c0 -33
-19 -88 -20 -57 0 11 -42 34 -62 34 -5 0 -8 -7 -4 -15 9 -24 -4 -45 -28 -45
-30 0 -39 10 -25 27 9 10 15 11 26 2 15 -13 29 -6 19 9 -3 5 -19 8 -35 7 -18
-1 -32 3 -35 11 -4 10 5 14 34 14 29 0 40 4 40 15 0 9 9 15 25 15 17 0 23 -4
19 -14 -3 -8 3 -19 15 -26 19 -10 21 -8 21 19 0 20 -6 31 -17 34 -14 4 -12 5
5 6 19 1 22 -4 22 -36z m-330 17 c0 -5 -7 -10 -15 -10 -8 0 -15 5 -15 10 0 6
7 10 15 10 8 0 15 -4 15 -10z m77 -32 c-3 -7 -5 -2 -5 12 0 14 2 19 5 13 2 -7
2 -19 0 -25z m-157 12 c0 -5 -7 -10 -16 -10 -8 0 -12 5 -9 10 3 6 10 10 16 10
5 0 9 -4 9 -10z m80 -19 c0 -5 9 -7 20 -4 11 3 20 0 20 -6 0 -12 -14 -14 -47
-5 -26 7 -31 24 -8 24 8 0 15 -4 15 -9z m130 -11 c0 -5 -12 -10 -26 -10 -14 0
-23 4 -19 10 3 6 15 10 26 10 10 0 19 -4 19 -10z m243 -17 c-7 -2 -19 -2 -25
0 -7 3 -2 5 12 5 14 0 19 -2 13 -5z m317 -33 c0 -22 -4 -40 -10 -40 -5 0 -10
18 -10 40 0 22 5 40 10 40 6 0 10 -18 10 -40z m-715 8 c-19 -11 -30 -5 -21 11
4 6 14 7 22 4 15 -5 14 -7 -1 -15z m881 1 c10 -17 -13 -36 -27 -22 -12 12 -4
33 11 33 5 0 12 -5 16 -11z m-472 -18 c8 -12 -20 -22 -39 -15 -19 8 -9 24 15
24 10 0 21 -4 24 -9z m-144 -16 c0 -8 -7 -15 -16 -15 -14 0 -14 3 -4 15 7 8
14 15 16 15 2 0 4 -7 4 -15z m50 -5 c0 -5 -4 -10 -10 -10 -5 0 -10 5 -10 10 0
6 5 10 10 10 6 0 10 -4 10 -10z m525 0 c3 -5 1 -10 -4 -10 -6 0 -11 5 -11 10
0 6 2 10 4 10 3 0 8 -4 11 -10z m-852 -7 c-7 -2 -21 -2 -30 0 -10 3 -4 5 12 5
17 0 24 -2 18 -5z m87 -13 c0 -5 -4 -10 -10 -10 -5 0 -10 5 -10 10 0 6 5 10
10 10 6 0 10 -4 10 -10z m350 0 c0 -5 -18 -10 -40 -10 -22 0 -40 5 -40 10 0 6
18 10 40 10 22 0 40 -4 40 -10z m130 -5 c0 -8 -4 -15 -10 -15 -5 0 -10 7 -10
15 0 8 5 15 10 15 6 0 10 -7 10 -15z m110 -25 c0 -33 3 -40 20 -40 11 0 20 -4
20 -10 0 -15 -29 -12 -46 4 -16 16 -19 86 -4 86 6 0 10 -18 10 -40z m80 0 c0
-22 -4 -40 -10 -40 -5 0 -10 18 -10 40 0 22 5 40 10 40 6 0 10 -18 10 -40z
m50 0 c0 -22 -4 -40 -10 -40 -5 0 -10 18 -10 40 0 22 5 40 10 40 6 0 10 -18
10 -40z m159 -40 c6 0 11 -7 11 -15 0 -8 -7 -15 -15 -15 -8 0 -15 7 -15 15 0
8 -7 15 -15 15 -8 0 -15 -7 -15 -16 0 -17 -22 -14 -28 4 -2 7 3 12 12 12 10 0
16 9 16 23 l1 22 18 -22 c11 -13 24 -23 30 -23z m-729 15 c0 -8 -9 -15 -20
-15 -11 0 -20 7 -20 15 0 8 9 15 20 15 11 0 20 -7 20 -15z m284 -20 c-5 -20
-9 -24 -18 -14 -8 8 -8 13 2 16 6 3 12 12 12 21 0 8 2 13 5 10 4 -3 3 -18 -1
-33z m73 13 c-3 -8 -6 -5 -6 6 -1 11 2 17 5 13 3 -3 4 -12 1 -19z m-577 -48
c0 -22 -4 -40 -10 -40 -5 0 -10 18 -10 40 0 22 5 40 10 40 6 0 10 -18 10 -40z
m340 24 c0 -8 -4 -12 -10 -9 -5 3 -10 10 -10 16 0 5 5 9 10 9 6 0 10 -7 10
-16z m218 -1 c-2 -10 -10 -18 -18 -18 -8 0 -16 8 -18 18 -2 12 3 17 18 17 15
0 20 -5 18 -17z m532 -23 c0 -38 -1 -39 -37 -45 -21 -3 -50 -8 -65 -10 -25 -4
-28 -1 -28 24 0 23 7 31 43 48 23 11 52 21 65 22 19 1 22 -4 22 -39z m-330 -1
c0 -15 -4 -19 -16 -15 -9 3 -20 6 -25 6 -5 0 -9 7 -9 15 0 9 9 15 25 15 19 0
25 -5 25 -21z m60 7 c0 -8 7 -16 15 -20 17 -6 20 -26 4 -26 -16 0 -39 26 -39
44 0 9 5 16 10 16 6 0 10 -6 10 -14z m-930 -6 c0 -5 -4 -10 -10 -10 -5 0 -10
5 -10 10 0 6 5 10 10 10 6 0 10 -4 10 -10z m550 -31 c0 -5 -4 -9 -10 -9 -5 0
-10 7 -10 16 0 8 5 12 10 9 6 -3 10 -10 10 -16z m-405 1 c3 -5 1 -10 -4 -10
-6 0 -11 5 -11 10 0 6 2 10 4 10 3 0 8 -4 11 -10z m275 0 c0 -5 -5 -10 -11
-10 -5 0 -7 5 -4 10 3 6 8 10 11 10 2 0 4 -4 4 -10z m200 -10 c0 -5 -5 -10
-11 -10 -5 0 -7 5 -4 10 3 6 8 10 11 10 2 0 4 -4 4 -10z m396 1 c-3 -4 11 -25
31 -45 32 -31 34 -36 16 -36 -12 0 -23 7 -27 15 -3 8 -17 15 -31 15 -14 0 -25
5 -25 10 0 6 7 10 15 10 8 0 15 5 15 10 0 6 -6 10 -12 10 -9 0 -8 4 2 10 19
12 23 12 16 1z m-513 -8 c-7 -2 -19 -2 -25 0 -7 3 -2 5 12 5 14 0 19 -2 13 -5z
m247 -8 c0 -8 -7 -15 -15 -15 -8 0 -15 7 -15 15 0 8 7 15 15 15 8 0 15 -7 15
-15z m80 -25 c0 -29 -4 -40 -15 -40 -11 0 -15 11 -15 40 0 29 4 40 15 40 11 0
15 -11 15 -40z m47 34 c-3 -3 -12 -4 -19 -1 -8 3 -5 6 6 6 11 1 17 -2 13 -5z
m83 -14 c0 -5 -7 -10 -15 -10 -18 0 -20 -17 -2 -23 7 -2 8 -8 3 -13 -5 -5 -11
-4 -13 4 -3 6 -11 12 -19 12 -8 0 -14 5 -14 10 0 6 7 10 15 10 8 0 15 5 15 10
0 6 7 10 15 10 8 0 15 -4 15 -10z m-770 -10 c0 -5 -4 -10 -10 -10 -5 0 -10 5
-10 10 0 6 5 10 10 10 6 0 10 -4 10 -10z m320 -10 c0 -5 -9 -10 -20 -10 -11 0
-20 5 -20 10 0 6 9 10 20 10 11 0 20 -4 20 -10z m150 0 c0 -5 -4 -10 -10 -10
-5 0 -10 5 -10 10 0 6 5 10 10 10 6 0 10 -4 10 -10z m50 -25 c0 -8 -7 -15 -15
-15 -9 0 -12 6 -9 15 4 8 10 15 15 15 5 0 9 -7 9 -15z m443 8 c-13 -2 -33 -2
-45 0 -13 2 -3 4 22 4 25 0 35 -2 23 -4z m-733 -13 c0 -5 -4 -10 -10 -10 -5 0
-10 5 -10 10 0 6 5 10 10 10 6 0 10 -4 10 -10z m83 -7 c-7 -2 -19 -2 -25 0 -7
3 -2 5 12 5 14 0 19 -2 13 -5z m374 1 c-3 -3 -12 -4 -19 -1 -8 3 -5 6 6 6 11
1 17 -2 13 -5z m130 0 c-3 -3 -12 -4 -19 -1 -8 3 -5 6 6 6 11 1 17 -2 13 -5z
m-77 -44 c0 -34 -4 -41 -24 -46 -14 -3 -33 -4 -43 -1 -10 3 -4 5 15 6 31 1 32
3 32 41 0 22 5 40 10 40 6 0 10 -18 10 -40z m180 1 c0 -5 -6 -12 -12 -14 -10
-4 -9 -8 2 -16 16 -11 8 -15 -24 -11 -17 1 -18 -5 -14 -77 3 -43 3 -61 1 -40
-2 20 -8 37 -14 37 -5 0 -9 18 -9 40 0 22 5 40 10 40 6 0 10 9 10 19 0 17 12
25 43 30 4 0 7 -3 7 -8z m-1070 -45 c0 -3 -4 -8 -10 -11 -5 -3 -10 -1 -10 4 0
6 5 11 10 11 6 0 10 -2 10 -4z m577 -18 c-3 -8 -6 -5 -6 6 -1 11 2 17 5 13 3
-3 4 -12 1 -19z m53 6 c0 -8 -4 -12 -10 -9 -5 3 -10 10 -10 16 0 5 5 9 10 9 6
0 10 -7 10 -16z m315 6 c-3 -5 -10 -10 -16 -10 -5 0 -9 5 -9 10 0 6 7 10 16
10 8 0 12 -4 9 -10z m-820 -20 c8 -13 -5 -13 -25 0 -13 8 -13 10 2 10 9 0 20
-4 23 -10z m797 -49 c-8 -2 -21 4 -27 13 -7 9 -19 16 -28 16 -28 0 -28 19 0
22 20 2 34 -4 50 -22 18 -21 19 -26 5 -29z m188 39 c0 -13 -7 -20 -20 -20 -13
0 -20 7 -20 20 0 13 7 20 20 20 13 0 20 -7 20 -20z m-700 -10 c0 -5 -5 -10
-11 -10 -5 0 -7 5 -4 10 3 6 8 10 11 10 2 0 4 -4 4 -10z m400 -9 c0 -5 8 -12
18 -14 9 -3 3 -5 -15 -6 -25 -1 -31 2 -27 14 7 16 24 21 24 6z m-640 -11 c0
-5 -2 -10 -4 -10 -3 0 -8 5 -11 10 -3 6 -1 10 4 10 6 0 11 -4 11 -10z m720
-20 c0 -5 -4 -10 -10 -10 -5 0 -10 5 -10 10 0 6 5 10 10 10 6 0 10 -4 10 -10z
m87 -52 c-2 -13 -4 -3 -4 22 0 25 2 35 4 23 2 -13 2 -33 0 -45z m-267 42 c0
-5 -9 -10 -20 -10 -11 0 -20 5 -20 10 0 6 9 10 20 10 11 0 20 -4 20 -10z m120
-20 c0 -11 -4 -20 -10 -20 -5 0 -10 9 -10 20 0 11 5 20 10 20 6 0 10 -9 10
-20z m390 -6 c12 -22 12 -27 0 -34 -20 -13 -40 -12 -40 0 0 6 7 10 15 10 8 0
15 7 15 15 0 8 -7 15 -15 15 -8 0 -15 5 -15 10 0 20 27 9 40 -16z m-730 0 c0
-8 -4 -12 -10 -9 -5 3 -10 10 -10 16 0 5 5 9 10 9 6 0 10 -7 10 -16z m90 6 c0
-5 -9 -10 -20 -10 -11 0 -20 5 -20 10 0 6 9 10 20 10 11 0 20 -4 20 -10z m513
-6 c21 -12 32 -13 35 -5 5 14 32 15 32 1 0 -5 -6 -10 -14 -10 -8 0 -16 -7 -20
-15 -3 -10 -17 -14 -38 -13 l-33 1 33 4 c39 5 33 23 -9 23 -19 0 -29 5 -29 15
0 19 4 19 43 -1z m-383 -14 c0 -5 -9 -10 -20 -10 -11 0 -20 5 -20 10 0 6 9 10
20 10 11 0 20 -4 20 -10z m178 -8 c-32 -71 -44 -91 -61 -96 -30 -8 -37 1 -37
45 0 53 18 50 22 -3 l3 -43 19 39 c10 22 24 45 30 52 12 14 30 19 24 6z m145
-39 c-13 -2 -33 -2 -45 0 -13 2 -3 4 22 4 25 0 35 -2 23 -4z m127 -3 c0 -5 -7
-10 -15 -10 -8 0 -15 5 -15 10 0 6 7 10 15 10 8 0 15 -4 15 -10z m-40 -10 c0
-5 -13 -10 -30 -10 -16 0 -30 5 -30 10 0 6 14 10 30 10 17 0 30 -4 30 -10z
m90 -10 c0 -5 -7 -10 -15 -10 -8 0 -15 5 -15 10 0 6 7 10 15 10 8 0 15 -4 15
-10z m113 -20 c18 -22 24 -90 7 -90 -5 0 -10 18 -10 40 0 29 -4 40 -15 40 -8
0 -15 7 -15 15 0 21 12 19 33 -5z m187 5 c0 -8 -4 -15 -10 -15 -5 0 -10 7 -10
15 0 8 5 15 10 15 6 0 10 -7 10 -15z m-405 -13 c-11 -2 -24 -10 -28 -18 -11
-19 -27 -18 -27 1 0 9 -9 15 -24 15 -13 0 -26 -7 -30 -15 -8 -22 -26 -18 -26
5 0 18 7 19 78 18 42 -1 68 -3 57 -6z m52 2 c-3 -3 -12 -4 -19 -1 -8 3 -5 6 6
6 11 1 17 -2 13 -5z m-617 -14 c0 -5 -4 -10 -10 -10 -5 0 -10 5 -10 10 0 6 5
10 10 10 6 0 10 -4 10 -10z m200 6 c0 -3 -4 -8 -10 -11 -5 -3 -10 -1 -10 4 0
6 5 11 10 11 6 0 10 -2 10 -4z m200 -31 c0 -8 -4 -15 -10 -15 -5 0 -10 7 -10
15 0 8 5 15 10 15 6 0 10 -7 10 -15z m-160 -5 c0 -5 -4 -10 -10 -10 -5 0 -10
5 -10 10 0 6 5 10 10 10 6 0 10 -4 10 -10z m270 -30 c0 -17 -7 -20 -44 -20
-44 0 -66 12 -46 25 5 3 10 1 10 -4 0 -17 47 -13 54 4 8 22 26 18 26 -5z m80
0 c0 -11 -7 -20 -15 -20 -15 0 -21 21 -8 33 12 13 23 7 23 -13z m-430 0 c0 -5
-4 -10 -10 -10 -5 0 -10 5 -10 10 0 6 5 10 10 10 6 0 10 -4 10 -10z m205 -11
c-4 -5 -13 -9 -22 -9 -13 0 -13 3 -3 15 13 15 35 11 25 -6z m-355 -3 c0 -11
-19 -15 -25 -6 -3 5 1 10 9 10 9 0 16 -2 16 -4z m657 -63 c-2 -16 -4 -5 -4 22
0 28 2 40 4 28 2 -13 2 -35 0 -50z m311 60 c-3 -5 -10 -23 -17 -40 -7 -18 -20
-33 -28 -33 -8 0 -13 3 -11 8 3 4 10 22 17 40 7 17 20 32 28 32 8 0 13 -3 11
-7z m-788 -13 c0 -5 -4 -10 -10 -10 -5 0 -10 5 -10 10 0 6 5 10 10 10 6 0 10
-4 10 -10z m100 -4 c0 -3 -4 -8 -10 -11 -5 -3 -10 -1 -10 4 0 6 5 11 10 11 6
0 10 -2 10 -4z m110 -16 c0 -5 -4 -10 -10 -10 -5 0 -10 5 -10 10 0 6 5 10 10
10 6 0 10 -4 10 -10z m190 0 c0 -5 -7 -10 -15 -10 -8 0 -15 5 -15 10 0 6 7 10
15 10 8 0 15 -4 15 -10z m-240 -10 c0 -5 -5 -10 -11 -10 -5 0 -7 5 -4 10 3 6
8 10 11 10 2 0 4 -4 4 -10z m-160 -10 c0 -5 -4 -10 -10 -10 -5 0 -10 5 -10 10
0 6 5 10 10 10 6 0 10 -4 10 -10z m94 -18 c-7 -4 -14 -16 -16 -27 -5 -19 -5
-19 -13 -1 -8 18 7 36 30 36 6 0 5 -4 -1 -8z m144 -22 c-2 -6 -8 -6 -18 0 -13
9 -13 11 0 20 15 10 25 0 18 -20z m161 8 c-1 -17 -2 -19 -6 -5 -5 21 -23 23
-23 2 0 -8 -4 -15 -10 -15 -14 0 -12 27 3 33 26 11 37 6 36 -15z m-422 -50
c-2 -13 -4 -3 -4 22 0 25 2 35 4 23 2 -13 2 -33 0 -45z m350 40 c-3 -8 -6 -5
-6 6 -1 11 2 17 5 13 3 -3 4 -12 1 -19z m-552 2 c3 -5 1 -10 -4 -10 -6 0 -11
5 -11 10 0 6 2 10 4 10 3 0 8 -4 11 -10z m867 -15 c-2 -14 -11 -25 -18 -25
-20 0 -17 38 4 43 9 3 18 5 18 6 1 0 -1 -10 -4 -24z m78 -10 c0 -24 5 -35 15
-35 8 0 15 -5 15 -10 0 -6 -7 -13 -15 -16 -8 -4 -15 -17 -15 -30 0 -13 -5 -24
-11 -24 -7 0 -10 19 -8 53 2 28 0 58 -4 65 -9 13 -1 32 14 32 5 0 9 -16 9 -35z
m-62 -32 c-13 -3 -18 -15 -18 -44 0 -21 -4 -39 -10 -39 -15 0 -12 77 3 83 6 3
19 5 27 5 10 0 9 -2 -2 -5z m-921 -9 c-3 -3 -12 -4 -19 -1 -8 3 -5 6 6 6 11 1
17 -2 13 -5z m283 -1 c0 -5 -5 -15 -10 -23 -8 -12 -10 -11 -10 8 0 12 5 22 10
22 6 0 10 -3 10 -7z m73 0 c-7 -2 -13 -12 -13 -21 0 -15 -2 -15 -10 -2 -15 23
-12 30 13 29 12 0 16 -3 10 -6z m867 -35 c0 -16 -3 -19 -11 -11 -6 6 -8 16 -5
22 11 17 16 13 16 -11z m-750 -23 c0 -8 -4 -15 -10 -15 -5 0 -10 7 -10 15 0 8
5 15 10 15 6 0 10 -7 10 -15z m725 -5 c3 -5 -3 -10 -15 -10 -12 0 -18 5 -15
10 3 6 10 10 15 10 5 0 12 -4 15 -10z m-801 -15 c-5 -12 -10 -13 -20 -4 -19
15 -18 19 6 19 13 0 18 -5 14 -15z m113 -57 c-2 -13 -4 -3 -4 22 0 25 2 35 4
23 2 -13 2 -33 0 -45z m443 22 c0 -22 -4 -40 -10 -40 -5 0 -10 18 -10 40 0 22
5 40 10 40 6 0 10 -18 10 -40z m50 21 c-5 -11 -10 -30 -10 -42 0 -12 -3 -20
-6 -16 -10 9 5 77 17 77 6 0 6 -7 -1 -19z m270 -2 c0 -12 5 -16 16 -12 8 3 13
12 10 19 -3 8 -2 14 3 14 12 0 21 -103 10 -114 -6 -6 -9 -5 -9 2 0 7 -16 12
-40 12 -33 0 -40 -3 -40 -20 0 -11 -7 -20 -15 -20 -8 0 -15 9 -15 20 0 11 6
20 14 20 8 0 16 4 18 10 2 5 20 11 40 12 28 2 38 7 38 20 0 11 -5 15 -14 12
-8 -3 -17 -1 -21 5 -3 6 -15 11 -26 11 -28 0 -23 25 6 26 18 1 25 -3 25 -17z
m-930 -9 c0 -5 -8 -10 -17 -10 -15 0 -16 2 -3 10 19 12 20 12 20 0z m540 -10
c0 -13 -7 -20 -20 -20 -13 0 -20 7 -20 20 0 13 7 20 20 20 13 0 20 -7 20 -20z
m-60 0 c0 -5 -4 -10 -10 -10 -5 0 -10 5 -10 10 0 6 5 10 10 10 6 0 10 -4 10
-10z m320 -5 c0 -11 -11 -15 -40 -15 -40 0 -55 -15 -22 -23 15 -4 15 -5 0 -6
-22 -1 -31 14 -23 39 5 16 15 20 46 20 28 0 39 -4 39 -15z m-540 -14 c0 -5 9
-11 20 -14 12 -3 20 -13 19 -24 -1 -15 -2 -15 -6 -1 -2 9 -15 19 -29 22 -23 6
-34 26 -14 26 6 0 10 -4 10 -9z m434 -108 c-3 -40 -10 -73 -15 -73 -10 0 -12
150 -2 176 13 35 24 -29 17 -103z m216 107 c0 -5 -4 -10 -9 -10 -6 0 -13 5
-16 10 -3 6 1 10 9 10 9 0 16 -4 16 -10z m-906 -8 c3 -5 -8 -6 -25 -4 -16 2
-29 6 -29 8 0 8 49 4 54 -4z m416 -6 c0 -3 -4 -8 -10 -11 -5 -3 -10 -1 -10 4
0 6 5 11 10 11 6 0 10 -2 10 -4z m146 -22 c-9 -8 -20 -12 -26 -9 -19 12 -10
25 16 25 23 0 24 -1 10 -16z m74 -24 c0 -5 -4 -10 -10 -10 -5 0 -10 5 -10 10
0 6 5 10 10 10 6 0 10 -4 10 -10z m160 0 c0 -5 -7 -10 -15 -10 -8 0 -15 5 -15
10 0 6 7 10 15 10 8 0 15 -4 15 -10z m-533 -32 c-3 -8 -6 -5 -6 6 -1 11 2 17
5 13 3 -3 4 -12 1 -19z m133 7 c0 -8 8 -15 17 -15 14 0 15 -2 4 -12 -11 -10
-14 -10 -18 0 -3 6 -13 12 -24 12 -10 0 -19 7 -19 15 0 8 9 15 20 15 11 0 20
-7 20 -15z m108 -3 c2 -7 -5 -12 -17 -12 -14 0 -19 5 -14 15 6 17 25 15 31 -3z
m101 -18 c3 -3 0 -9 -7 -16 -8 -8 -15 -8 -27 2 -22 19 -18 32 8 24 12 -3 24
-8 26 -10z m135 1 c-4 -8 -10 -15 -15 -15 -5 0 -9 7 -9 15 0 8 7 15 15 15 9 0
12 -6 9 -15z m60 0 c-7 -16 -24 -21 -24 -6 0 8 7 13 27 20 1 1 0 -6 -3 -14z
m-1461 -2 c-7 -2 -19 -2 -25 0 -7 3 -2 5 12 5 14 0 19 -2 13 -5z m497 -3 c0
-5 -2 -10 -4 -10 -3 0 -8 5 -11 10 -3 6 -1 10 4 10 6 0 11 -4 11 -10z m400 -6
c0 -14 -3 -14 -15 -4 -8 7 -15 14 -15 16 0 2 7 4 15 4 8 0 15 -7 15 -16z m320
-4 c0 -5 -18 -10 -40 -10 -22 0 -40 5 -40 10 0 6 18 10 40 10 22 0 40 -4 40
-10z m-880 -20 c0 -5 -2 -10 -4 -10 -3 0 -8 5 -11 10 -3 6 -1 10 4 10 6 0 11
-4 11 -10z m800 -10 c0 -5 -2 -10 -4 -10 -3 0 -8 5 -11 10 -3 6 -1 10 4 10 6
0 11 -4 11 -10z m-190 -15 c0 -8 -4 -15 -10 -15 -5 0 -10 7 -10 15 0 8 5 15
10 15 6 0 10 -7 10 -15z"/>
<path d="M2969 4467 c-126 -53 -194 -132 -244 -282 -79 -235 -7 -509 168 -638
138 -102 329 -85 454 41 157 161 194 448 86 672 -33 69 -132 168 -198 200 -75
35 -192 38 -266 7z"/>
<path d="M5980 990 c-13 -8 -12 -10 3 -10 9 0 17 5 17 10 0 12 -1 12 -20 0z"/>
<path d="M110 7180 c0 -22 5 -40 10 -40 6 0 10 18 10 40 0 22 -4 40 -10 40 -5
0 -10 -18 -10 -40z"/>
<path d="M790 7210 c0 -5 5 -10 10 -10 6 0 10 5 10 10 0 6 -4 10 -10 10 -5 0
-10 -4 -10 -10z"/>
<path d="M851 7204 c0 -11 3 -14 6 -6 3 7 2 16 -1 19 -3 4 -6 -2 -5 -13z"/>
<path d="M945 7210 c3 -5 8 -10 11 -10 2 0 4 5 4 10 0 6 -5 10 -11 10 -5 0 -7
-4 -4 -10z"/>
<path d="M880 7188 c0 -9 -3 -25 -6 -35 -5 -13 -1 -11 11 5 13 18 14 27 6 35
-8 8 -11 7 -11 -5z"/>
<path d="M821 7154 c0 -11 3 -14 6 -6 3 7 2 16 -1 19 -3 4 -6 -2 -5 -13z"/>
<path d="M750 7150 c0 -5 5 -10 10 -10 6 0 10 5 10 10 0 6 -4 10 -10 10 -5 0
-10 -4 -10 -10z"/>
<path d="M945 7150 c-3 -5 -1 -10 4 -10 6 0 11 5 11 10 0 6 -2 10 -4 10 -3 0
-8 -4 -11 -10z"/>
<path d="M151 7115 c0 -17 3 -25 7 -18 4 6 25 13 47 16 l40 4 -42 1 c-23 1
-44 8 -46 15 -3 6 -6 -1 -6 -18z"/>
<path d="M643 7100 c0 -25 2 -35 4 -22 2 12 2 32 0 45 -2 12 -4 2 -4 -23z"/>
<path d="M480 7081 c0 -12 5 -21 10 -21 6 0 10 6 10 14 0 8 -4 18 -10 21 -5 3
-10 -3 -10 -14z"/>
<path d="M545 7086 c-6 -13 -5 -21 3 -24 7 -2 12 -21 12 -43 0 -29 -4 -39 -16
-39 -9 0 -14 -5 -12 -12 6 -18 28 -21 28 -4 0 9 5 16 10 16 6 0 10 18 10 40 0
22 -4 40 -9 40 -5 0 -11 10 -14 23 -3 21 -4 21 -12 3z"/>
<path d="M220 7024 c0 -8 6 -22 14 -30 16 -16 86 -19 86 -4 0 6 -18 10 -40 10
-33 0 -40 3 -40 20 0 11 -4 20 -10 20 -5 0 -10 -7 -10 -16z"/>
<path d="M800 7020 c0 -5 5 -10 10 -10 6 0 10 5 10 10 0 6 -4 10 -10 10 -5 0
-10 -4 -10 -10z"/>
<path d="M1121 6994 c0 -11 3 -14 6 -6 3 7 2 16 -1 19 -3 4 -6 -2 -5 -13z"/>
<path d="M0 6952 c0 -15 5 -19 20 -15 24 6 21 26 -3 31 -11 2 -17 -3 -17 -16z"/>
<path d="M260 6940 c0 -13 7 -20 20 -20 13 0 20 7 20 20 0 13 -7 20 -20 20
-13 0 -20 -7 -20 -20z"/>
<path d="M338 6953 c12 -2 32 -2 45 0 12 2 2 4 -23 4 -25 0 -35 -2 -22 -4z"/>
<path d="M1440 6950 c0 -5 5 -10 10 -10 6 0 10 5 10 10 0 6 -4 10 -10 10 -5 0
-10 -4 -10 -10z"/>
<path d="M480 6916 c0 -9 7 -16 16 -16 9 0 14 5 12 12 -6 18 -28 21 -28 4z"/>
<path d="M315 6899 c-9 -28 -3 -32 44 -24 31 5 41 11 41 26 0 15 -7 19 -39 19
-31 0 -41 -4 -46 -21z m48 -6 c-7 -2 -21 -2 -30 0 -10 3 -4 5 12 5 17 0 24 -2
18 -5z"/>
<path d="M1498 6903 c7 -3 16 -2 19 1 4 3 -2 6 -13 5 -11 0 -14 -3 -6 -6z"/>
<path d="M270 6835 c0 -8 5 -15 10 -15 6 0 10 7 10 15 0 8 -4 15 -10 15 -5 0
-10 -7 -10 -15z"/>
<path d="M320 6841 c0 -5 12 -11 28 -13 24 -3 27 -7 30 -45 4 -59 22 -54 22 6
0 46 -1 49 -31 55 -42 8 -49 8 -49 -3z"/>
<path d="M590 6830 c0 -5 5 -10 10 -10 6 0 10 5 10 10 0 6 -4 10 -10 10 -5 0
-10 -4 -10 -10z"/>
<path d="M790 6810 c0 -5 7 -7 15 -4 8 4 15 8 15 10 0 2 -7 4 -15 4 -8 0 -15
-4 -15 -10z"/>
<path d="M1220 6780 c0 -22 5 -40 10 -40 6 0 10 18 10 40 0 22 -4 40 -10 40
-5 0 -10 -18 -10 -40z"/>
<path d="M1120 6800 c0 -5 5 -10 11 -10 5 0 7 5 4 10 -3 6 -8 10 -11 10 -2 0
-4 -4 -4 -10z"/>
<path d="M1185 6800 c-3 -5 -1 -10 4 -10 6 0 11 5 11 10 0 6 -2 10 -4 10 -3 0
-8 -4 -11 -10z"/>
<path d="M750 6780 c0 -5 7 -10 15 -10 8 0 15 5 15 10 0 6 -7 10 -15 10 -8 0
-15 -4 -15 -10z"/>
<path d="M800 6780 c0 -5 5 -10 10 -10 6 0 10 5 10 10 0 6 -4 10 -10 10 -5 0
-10 -4 -10 -10z"/>
<path d="M860 6780 c0 -5 5 -10 10 -10 6 0 10 5 10 10 0 6 -4 10 -10 10 -5 0
-10 -4 -10 -10z"/>
<path d="M546 6761 c-4 -7 -5 -15 -2 -18 9 -9 19 4 14 18 -4 11 -6 11 -12 0z"/>
<path d="M720 6750 c0 -5 5 -10 10 -10 6 0 10 5 10 10 0 6 -4 10 -10 10 -5 0
-10 -4 -10 -10z"/>
<path d="M1148 6743 c6 -2 18 -2 25 0 6 3 1 5 -13 5 -14 0 -19 -2 -12 -5z"/>
<path d="M430 6704 c0 -8 5 -12 10 -9 6 4 8 11 5 16 -9 14 -15 11 -15 -7z"/>
<path d="M400 6671 c0 -5 -7 -11 -17 -13 -15 -3 -15 -4 0 -17 15 -12 17 -11
17 3 0 9 5 16 10 16 6 0 10 5 10 10 0 6 -4 10 -10 10 -5 0 -10 -4 -10 -9z"/>
<path d="M1888 6653 c6 -2 18 -2 25 0 6 3 1 5 -13 5 -14 0 -19 -2 -12 -5z"/>
<path d="M380 6595 c-11 -13 -8 -15 19 -15 36 0 39 5 12 19 -14 8 -22 7 -31
-4z"/>
<path d="M1905 6600 c3 -5 8 -10 11 -10 2 0 4 5 4 10 0 6 -5 10 -11 10 -5 0
-7 -4 -4 -10z"/>
<path d="M600 6572 c0 -10 22 -32 32 -32 4 0 8 9 8 20 0 13 -7 20 -20 20 -11
0 -20 -4 -20 -8z"/>
<path d="M1470 6570 c0 -5 5 -10 10 -10 6 0 10 5 10 10 0 6 -4 10 -10 10 -5 0
-10 -4 -10 -10z"/>
<path d="M1280 6530 c0 -5 5 -10 11 -10 5 0 7 5 4 10 -3 6 -8 10 -11 10 -2 0
-4 -4 -4 -10z"/>
<path d="M1351 6524 c0 -11 3 -14 6 -6 3 7 2 16 -1 19 -3 4 -6 -2 -5 -13z"/>
<path d="M1140 6484 c0 -8 5 -12 10 -9 6 3 10 10 10 16 0 5 -4 9 -10 9 -5 0
-10 -7 -10 -16z"/>
<path d="M1190 6483 c0 -12 3 -14 8 -6 4 6 25 13 47 16 40 4 40 4 -7 5 -40 2
-48 -1 -48 -15z"/>
<path d="M2613 6483 c15 -2 37 -2 50 0 12 2 0 4 -28 4 -27 0 -38 -2 -22 -4z"/>
<path d="M1440 6433 c0 -28 3 -34 10 -23 13 20 13 47 0 55 -6 4 -10 -9 -10
-32z"/>
<path d="M1900 6460 c0 -5 5 -10 10 -10 6 0 10 5 10 10 0 6 -4 10 -10 10 -5 0
-10 -4 -10 -10z"/>
<path d="M2488 6463 c7 -3 16 -2 19 1 4 3 -2 6 -13 5 -11 0 -14 -3 -6 -6z"/>
<path d="M2615 6459 c4 -5 18 -9 32 -9 32 0 27 7 -10 14 -16 3 -25 1 -22 -5z"/>
<path d="M740 6410 c0 -5 5 -10 10 -10 6 0 10 5 10 10 0 6 -4 10 -10 10 -5 0
-10 -4 -10 -10z"/>
<path d="M960 6404 c0 -17 22 -14 28 4 2 7 -3 12 -12 12 -9 0 -16 -7 -16 -16z"/>
<path d="M1220 6406 c0 -8 -6 -17 -12 -20 -10 -5 -10 -7 0 -12 6 -3 12 -12 12
-20 0 -8 7 -14 17 -14 14 0 14 2 -2 20 -17 19 -17 21 0 40 16 18 16 20 2 20
-10 0 -17 -6 -17 -14z"/>
<path d="M1920 6409 c0 -5 5 -7 10 -4 6 3 10 8 10 11 0 2 -4 4 -10 4 -5 0 -10
-5 -10 -11z"/>
<path d="M1272 6380 c0 -14 2 -19 5 -12 2 6 2 18 0 25 -3 6 -5 1 -5 -13z"/>
<path d="M795 6371 c-11 -34 4 -51 46 -51 34 0 39 3 39 22 0 17 -3 19 -12 10
-7 -7 -25 -12 -40 -12 -25 0 -27 2 -18 19 12 24 13 31 1 31 -5 0 -12 -8 -16
-19z"/>
<path d="M1015 6360 c-3 -6 1 -17 9 -26 15 -14 16 -13 16 10 0 26 -13 35 -25
16z"/>
<path d="M1470 6350 c0 -5 5 -10 10 -10 6 0 10 5 10 10 0 6 -4 10 -10 10 -5 0
-10 -4 -10 -10z"/>
<path d="M1120 6330 c0 -5 18 -10 40 -10 22 0 40 5 40 10 0 6 -18 10 -40 10
-22 0 -40 -4 -40 -10z"/>
<path d="M2185 6320 c-10 -11 -16 -22 -13 -25 3 -3 13 4 23 15 10 11 16 22 13
25 -3 3 -13 -4 -23 -15z"/>
<path d="M800 6245 c0 -19 5 -35 11 -35 7 0 9 10 5 25 -6 23 -4 25 29 25 19 0
35 5 35 10 0 6 -18 10 -40 10 -39 0 -40 -1 -40 -35z"/>
<path d="M1230 6220 c0 -22 5 -40 10 -40 6 0 10 18 10 40 0 22 -4 40 -10 40
-5 0 -10 -18 -10 -40z"/>
<path d="M2101 6255 c1 -19 18 -51 18 -35 0 8 -4 22 -9 30 -5 8 -9 11 -9 5z"/>
<path d="M865 6190 c-3 -5 -1 -10 4 -10 6 0 11 5 11 10 0 6 -2 10 -4 10 -3 0
-8 -4 -11 -10z"/>
<path d="M990 6170 c0 -5 5 -10 10 -10 6 0 10 5 10 10 0 6 -4 10 -10 10 -5 0
-10 -4 -10 -10z"/>
<path d="M1280 6171 c0 -4 11 -6 25 -3 14 2 25 6 25 8 0 2 -11 4 -25 4 -14 0
-25 -4 -25 -9z"/>
<path d="M1788 6173 c7 -3 16 -2 19 1 4 3 -2 6 -13 5 -11 0 -14 -3 -6 -6z"/>
<path d="M1590 6160 c0 -25 16 -44 25 -30 4 7 0 19 -9 28 -13 14 -16 14 -16 2z"/>
<path d="M1556 6145 c-9 -26 -7 -32 5 -12 6 10 9 21 6 23 -2 3 -7 -2 -11 -11z"/>
<path d="M1761 6144 c0 -11 3 -14 6 -6 3 7 2 16 -1 19 -3 4 -6 -2 -5 -13z"/>
<path d="M1831 6134 c0 -11 3 -14 6 -6 3 7 2 16 -1 19 -3 4 -6 -2 -5 -13z"/>
<path d="M1280 6125 c0 -16 9 -19 34 -9 20 8 11 24 -15 24 -10 0 -19 -7 -19
-15z"/>
<path d="M1521 6124 c0 -11 3 -14 6 -6 3 7 2 16 -1 19 -3 4 -6 -2 -5 -13z"/>
<path d="M2036 6108 c-9 -37 -7 -43 9 -22 16 21 19 44 6 44 -5 0 -11 -10 -15
-22z"/>
<path d="M990 6110 c0 -5 5 -10 10 -10 6 0 10 5 10 10 0 6 -4 10 -10 10 -5 0
-10 -4 -10 -10z"/>
<path d="M1798 6103 c7 -3 16 -2 19 1 4 3 -2 6 -13 5 -11 0 -14 -3 -6 -6z"/>
<path d="M880 6090 c0 -13 20 -13 40 0 12 8 9 10 -12 10 -16 0 -28 -4 -28 -10z"/>
<path d="M1186 6085 c4 -8 8 -15 10 -15 2 0 4 7 4 15 0 8 -4 15 -10 15 -5 0
-7 -7 -4 -15z"/>
<path d="M1280 6060 c0 -22 5 -40 10 -40 6 0 10 18 10 40 0 22 -4 40 -10 40
-5 0 -10 -18 -10 -40z"/>
<path d="M1820 6060 c0 -5 5 -10 10 -10 6 0 10 5 10 10 0 6 -4 10 -10 10 -5 0
-10 -4 -10 -10z"/>
<path d="M1860 6060 c0 -5 9 -10 20 -10 11 0 20 5 20 10 0 6 -9 10 -20 10 -11
0 -20 -4 -20 -10z"/>
<path d="M1950 6060 c0 -5 5 -10 10 -10 6 0 10 5 10 10 0 6 -4 10 -10 10 -5 0
-10 -4 -10 -10z"/>
<path d="M880 6051 c0 -5 10 -11 23 -14 12 -2 30 -8 40 -12 13 -5 17 -2 17 14
0 18 -6 21 -40 21 -22 0 -40 -4 -40 -9z"/>
<path d="M1111 6029 c-15 -26 -7 -37 13 -17 8 8 11 20 7 26 -4 7 -11 4 -20 -9z"/>
<path d="M1360 6035 c0 -8 7 -15 15 -15 11 0 15 -11 15 -39 0 -22 5 -41 13
-44 9 -3 11 7 9 37 -3 29 -11 46 -28 59 -21 15 -24 16 -24 2z"/>
<path d="M2005 6040 c3 -5 8 -10 11 -10 2 0 4 5 4 10 0 6 -5 10 -11 10 -5 0
-7 -4 -4 -10z"/>
<path d="M1200 6005 c0 -8 2 -15 4 -15 2 0 6 7 10 15 3 8 1 15 -4 15 -6 0 -10
-7 -10 -15z"/>
<path d="M1688 6013 c7 -3 16 -2 19 1 4 3 -2 6 -13 5 -11 0 -14 -3 -6 -6z"/>
<path d="M1840 5990 c0 -5 4 -10 9 -10 6 0 13 5 16 10 3 6 -1 10 -9 10 -9 0
-16 -4 -16 -10z"/>
<path d="M1680 5970 c0 -5 7 -10 16 -10 8 0 12 5 9 10 -3 6 -10 10 -16 10 -5
0 -9 -4 -9 -10z"/>
<path d="M1266 5955 c-3 -8 -1 -15 4 -15 6 0 10 7 10 15 0 8 -2 15 -4 15 -2 0
-6 -7 -10 -15z"/>
<path d="M1100 5950 c0 -5 5 -10 10 -10 6 0 10 5 10 10 0 6 -4 10 -10 10 -5 0
-10 -4 -10 -10z"/>
<path d="M1848 5943 c7 -3 16 -2 19 1 4 3 -2 6 -13 5 -11 0 -14 -3 -6 -6z"/>
<path d="M1323 5933 c9 -2 25 -2 35 0 9 3 1 5 -18 5 -19 0 -27 -2 -17 -5z"/>
<path d="M1608 5933 c7 -3 16 -2 19 1 4 3 -2 6 -13 5 -11 0 -14 -3 -6 -6z"/>
<path d="M1280 5915 c0 -8 5 -15 10 -15 6 0 10 7 10 15 0 8 -4 15 -10 15 -5 0
-10 -7 -10 -15z"/>
<path d="M1433 5900 c-6 -23 -33 -27 -33 -5 0 8 -4 15 -10 15 -12 0 -34 -40
-26 -48 3 -3 6 0 6 6 0 7 7 12 15 12 8 0 15 -4 15 -10 0 -21 30 -9 36 14 5 21
13 26 47 29 l42 4 -43 1 c-36 2 -45 -1 -49 -18z"/>
<path d="M1745 5910 c-3 -5 -1 -10 4 -10 6 0 11 5 11 10 0 6 -2 10 -4 10 -3 0
-8 -4 -11 -10z"/>
<path d="M1650 5900 c0 -5 7 -10 15 -10 8 0 15 5 15 10 0 6 -7 10 -15 10 -8 0
-15 -4 -15 -10z"/>
<path d="M1291 5874 l-23 -23 33 9 c19 6 35 10 36 10 2 0 3 7 3 15 0 21 -21
17 -49 -11z"/>
<path d="M1940 5876 c0 -9 5 -16 10 -16 6 0 10 4 10 9 0 6 -4 13 -10 16 -5 3
-10 -1 -10 -9z"/>
<path d="M1680 5870 c0 -5 7 -10 16 -10 8 0 12 5 9 10 -3 6 -10 10 -16 10 -5
0 -9 -4 -9 -10z"/>
<path d="M1458 5863 c12 -2 32 -2 45 0 12 2 2 4 -23 4 -25 0 -35 -2 -22 -4z"/>
<path d="M1608 5863 c7 -3 16 -2 19 1 4 3 -2 6 -13 5 -11 0 -14 -3 -6 -6z"/>
<path d="M1298 5833 c12 -2 32 -2 45 0 12 2 2 4 -23 4 -25 0 -35 -2 -22 -4z"/>
<path d="M1920 5820 c0 -5 9 -10 21 -10 11 0 17 5 14 10 -3 6 -13 10 -21 10
-8 0 -14 -4 -14 -10z"/>
<path d="M1950 5790 c0 -5 5 -10 11 -10 5 0 7 5 4 10 -3 6 -8 10 -11 10 -2 0
-4 -4 -4 -10z"/>
<path d="M1299 5783 c19 -3 40 -11 48 -19 9 -8 31 -13 56 -12 l42 1 -42 4
c-29 3 -43 9 -43 19 0 10 -12 14 -47 12 -40 -1 -42 -2 -14 -5z"/>
<path d="M1600 5764 c0 -14 3 -14 15 -4 8 7 15 14 15 16 0 2 -7 4 -15 4 -8 0
-15 -7 -15 -16z"/>
<path d="M1698 5773 c12 -2 32 -2 45 0 12 2 2 4 -23 4 -25 0 -35 -2 -22 -4z"/>
<path d="M1670 5740 c20 -13 90 -13 90 0 0 6 -24 10 -52 10 -38 0 -49 -3 -38
-10z"/>
<path d="M1618 5719 c-18 -10 -25 -49 -10 -49 10 0 42 38 42 50 0 13 -10 12
-32 -1z"/>
<path d="M1680 5682 c0 -17 -6 -32 -15 -36 -22 -8 -18 -26 5 -26 17 0 20 7 20
40 0 38 2 40 30 40 28 0 30 -2 31 -42 1 -28 3 -34 6 -18 3 13 12 30 21 36 24
17 10 26 -48 32 l-50 5 0 -31z"/>
<path d="M1840 5680 c0 -12 -11 -31 -25 -44 -26 -24 -33 -46 -15 -46 6 0 10 7
10 15 0 8 9 15 20 15 17 0 20 7 20 40 0 22 -2 40 -5 40 -3 0 -5 -9 -5 -20z"/>
<path d="M1922 5675 c0 -16 2 -22 5 -12 2 9 2 23 0 30 -3 6 -5 -1 -5 -18z"/>
<path d="M1934 5615 c-3 -8 -4 -20 -2 -27 3 -7 7 -1 10 15 6 29 1 36 -8 12z"/>
<path d="M1858 5593 c12 -2 32 -2 45 0 12 2 2 4 -23 4 -25 0 -35 -2 -22 -4z"/>
<path d="M1761 5554 c0 -11 3 -14 6 -6 3 7 2 16 -1 19 -3 4 -6 -2 -5 -13z"/>
<path d="M1830 5558 c0 -13 8 -18 26 -18 22 0 24 -3 19 -22 -4 -13 -11 -27
-16 -32 -13 -14 -11 -26 4 -26 7 0 22 19 32 42 16 37 19 40 27 23 8 -20 8 -20
5 0 -2 16 -11 21 -42 23 -22 2 -43 9 -47 15 -5 8 -8 6 -8 -5z"/>
<path d="M1613 5533 c9 -2 23 -2 30 0 6 3 -1 5 -18 5 -16 0 -22 -2 -12 -5z"/>
<path d="M1490 5515 c-10 -12 -10 -18 0 -30 19 -23 30 -18 30 15 0 33 -11 38
-30 15z"/>
<path d="M1780 5500 c0 -13 7 -20 20 -20 13 0 20 7 20 20 0 13 -7 20 -20 20
-13 0 -20 -7 -20 -20z"/>
<path d="M1870 5343 c1 -36 23 -83 32 -66 3 4 3 29 0 56 -5 59 -32 68 -32 10z"/>
<path d="M1530 5261 c0 -22 -7 -46 -15 -55 -17 -17 -20 -46 -5 -46 6 0 10 7
10 16 0 18 23 44 39 44 6 0 11 18 11 40 0 33 -3 40 -20 40 -17 0 -20 -7 -20
-39z"/>
<path d="M1852 4960 c0 -14 2 -19 5 -12 2 6 2 18 0 25 -3 6 -5 1 -5 -13z"/>
<path d="M6088 3163 c7 -3 16 -2 19 1 4 3 -2 6 -13 5 -11 0 -14 -3 -6 -6z"/>
<path d="M6128 3153 c6 -2 18 -2 25 0 6 3 1 5 -13 5 -14 0 -19 -2 -12 -5z"/>
<path d="M6041 2964 c0 -11 3 -14 6 -6 3 7 2 16 -1 19 -3 4 -6 -2 -5 -13z"/>
<path d="M6072 2950 c0 -14 2 -19 5 -12 2 6 2 18 0 25 -3 6 -5 1 -5 -13z"/>
<path d="M6130 2940 c0 -5 5 -10 10 -10 6 0 10 5 10 10 0 6 -4 10 -10 10 -5 0
-10 -4 -10 -10z"/>
<path d="M6180 2810 c0 -5 4 -10 9 -10 6 0 13 5 16 10 3 6 -1 10 -9 10 -9 0
-16 -4 -16 -10z"/>
<path d="M6795 2709 c-4 -6 -5 -12 -2 -15 2 -3 7 2 10 11 7 17 1 20 -8 4z"/>
<path d="M5994 2670 c1 -8 10 -16 21 -17 15 -1 15 0 3 3 -9 3 -19 11 -21 17
-2 7 -3 5 -3 -3z"/>
<path d="M6310 2660 c8 -5 20 -10 25 -10 6 0 3 5 -5 10 -8 5 -19 10 -25 10 -5
0 -3 -5 5 -10z"/>
<path d="M5982 2600 c0 -14 2 -19 5 -12 2 6 2 18 0 25 -3 6 -5 1 -5 -13z"/>
<path d="M5992 2435 c0 -16 2 -22 5 -12 2 9 2 23 0 30 -3 6 -5 -1 -5 -18z"/>
<path d="M5946 2368 c-9 -32 2 -74 15 -61 6 6 6 25 1 49 -9 38 -9 38 -16 12z"/>
<path d="M5982 2360 c0 -14 2 -19 5 -12 2 6 2 18 0 25 -3 6 -5 1 -5 -13z"/>
<path d="M6320 2318 c0 -19 2 -20 10 -8 13 19 13 30 0 30 -5 0 -10 -10 -10
-22z"/>
<path d="M6640 2329 c0 -5 5 -7 10 -4 6 3 10 8 10 11 0 2 -4 4 -10 4 -5 0 -10
-5 -10 -11z"/>
<path d="M6020 2300 c0 -19 3 -21 12 -12 9 9 9 15 0 24 -9 9 -12 7 -12 -12z"/>
<path d="M5990 2276 c0 -9 5 -16 10 -16 6 0 10 4 10 9 0 6 -4 13 -10 16 -5 3
-10 -1 -10 -9z"/>
<path d="M5920 2250 c0 -5 5 -10 10 -10 6 0 10 5 10 10 0 6 -4 10 -10 10 -5 0
-10 -4 -10 -10z"/>
<path d="M6350 2250 c0 -5 5 -10 10 -10 6 0 10 5 10 10 0 6 -4 10 -10 10 -5 0
-10 -4 -10 -10z"/>
<path d="M5950 2220 c0 -5 5 -10 10 -10 6 0 10 5 10 10 0 6 -4 10 -10 10 -5 0
-10 -4 -10 -10z"/>
<path d="M5980 2190 c0 -5 5 -10 10 -10 6 0 10 5 10 10 0 6 -4 10 -10 10 -5 0
-10 -4 -10 -10z"/>
<path d="M6430 2170 c0 -5 5 -10 10 -10 6 0 10 5 10 10 0 6 -4 10 -10 10 -5 0
-10 -4 -10 -10z"/>
<path d="M6000 2140 c0 -5 5 -10 10 -10 6 0 10 5 10 10 0 6 -4 10 -10 10 -5 0
-10 -4 -10 -10z"/>
<path d="M6051 2101 c-8 -5 -9 -11 -3 -15 6 -3 14 -1 18 5 4 8 9 7 16 -2 8
-12 9 -11 6 0 -5 19 -19 23 -37 12z"/>
<path d="M6000 2077 c0 -3 7 -18 15 -33 11 -21 15 -24 15 -11 0 10 -7 25 -15
33 -8 9 -15 13 -15 11z"/>
<path d="M6465 2060 c-3 -5 -1 -10 4 -10 6 0 11 5 11 10 0 6 -2 10 -4 10 -3 0
-8 -4 -11 -10z"/>
<path d="M5902 2030 c0 -14 2 -19 5 -12 2 6 2 18 0 25 -3 6 -5 1 -5 -13z"/>
<path d="M6070 2031 c0 -6 4 -13 10 -16 6 -3 7 1 4 9 -7 18 -14 21 -14 7z"/>
<path d="M6110 2030 c0 -5 5 -10 10 -10 6 0 10 5 10 10 0 6 -4 10 -10 10 -5 0
-10 -4 -10 -10z"/>
<path d="M6320 2030 c0 -5 5 -10 11 -10 5 0 7 5 4 10 -3 6 -8 10 -11 10 -2 0
-4 -4 -4 -10z"/>
<path d="M6428 2023 c7 -3 16 -2 19 1 4 3 -2 6 -13 5 -11 0 -14 -3 -6 -6z"/>
<path d="M6250 2005 c0 -8 -7 -15 -15 -15 -18 0 -20 -17 -3 -22 7 -3 18 6 25
20 16 29 16 32 3 32 -5 0 -10 -7 -10 -15z"/>
<path d="M6292 2013 c3 -5 10 -23 17 -40 7 -18 17 -33 23 -33 5 0 8 3 6 8 -3
4 -11 22 -18 40 -8 17 -18 32 -23 32 -5 0 -7 -3 -5 -7z"/>
<path d="M6350 2009 c0 -5 5 -7 10 -4 6 3 10 8 10 11 0 2 -4 4 -10 4 -5 0 -10
-5 -10 -11z"/>
<path d="M5900 1980 c0 -5 5 -10 10 -10 6 0 10 5 10 10 0 6 -4 10 -10 10 -5 0
-10 -4 -10 -10z"/>
<path d="M5880 1955 c0 -8 4 -15 10 -15 5 0 7 7 4 15 -4 8 -8 15 -10 15 -2 0
-4 -7 -4 -15z"/>
<path d="M6270 1950 c0 -5 5 -10 10 -10 6 0 10 5 10 10 0 6 -4 10 -10 10 -5 0
-10 -4 -10 -10z"/>
<path d="M6158 1943 c7 -3 16 -2 19 1 4 3 -2 6 -13 5 -11 0 -14 -3 -6 -6z"/>
<path d="M6160 1850 c0 -5 4 -10 9 -10 6 0 13 5 16 10 3 6 -1 10 -9 10 -9 0
-16 -4 -16 -10z"/>
<path d="M6350 1850 c0 -5 5 -10 10 -10 6 0 10 5 10 10 0 6 -4 10 -10 10 -5 0
-10 -4 -10 -10z"/>
<path d="M6800 1849 c0 -5 5 -7 10 -4 6 3 10 8 10 11 0 2 -4 4 -10 4 -5 0 -10
-5 -10 -11z"/>
<path d="M6105 1840 c-3 -5 3 -10 15 -10 12 0 18 5 15 10 -3 6 -10 10 -15 10
-5 0 -12 -4 -15 -10z"/>
<path d="M6215 1790 c-3 -5 1 -10 9 -10 9 0 16 5 16 10 0 6 -4 10 -9 10 -6 0
-13 -4 -16 -10z"/>
<path d="M6080 1769 c0 -11 5 -17 10 -14 6 3 10 13 10 21 0 8 -4 14 -10 14 -5
0 -10 -9 -10 -21z"/>
<path d="M6153 1783 c4 -3 7 -11 7 -19 0 -19 16 -18 24 1 3 8 1 15 -3 15 -5 0
-15 2 -23 3 -7 2 -10 2 -5 0z"/>
<path d="M5801 1764 c0 -11 3 -14 6 -6 3 7 2 16 -1 19 -3 4 -6 -2 -5 -13z"/>
<path d="M5871 1764 c0 -11 3 -14 6 -6 3 7 2 16 -1 19 -3 4 -6 -2 -5 -13z"/>
<path d="M5922 1763 c5 -25 28 -28 28 -4 0 12 -6 21 -16 21 -9 0 -14 -7 -12
-17z"/>
<path d="M6350 1765 c0 -8 5 -15 10 -15 6 0 10 7 10 15 0 8 -4 15 -10 15 -5 0
-10 -7 -10 -15z"/>
<path d="M5825 1750 c3 -5 8 -10 11 -10 2 0 4 5 4 10 0 6 -5 10 -11 10 -5 0
-7 -4 -4 -10z"/>
<path d="M6400 1740 c0 -5 5 -10 11 -10 5 0 7 5 4 10 -3 6 -8 10 -11 10 -2 0
-4 -4 -4 -10z"/>
<path d="M6465 1740 c-3 -5 -1 -10 4 -10 6 0 11 5 11 10 0 6 -2 10 -4 10 -3 0
-8 -4 -11 -10z"/>
<path d="M5770 1719 c0 -11 5 -17 10 -14 6 3 10 13 10 21 0 8 -4 14 -10 14 -5
0 -10 -9 -10 -21z"/>
<path d="M5810 1710 c0 -5 7 -10 16 -10 8 0 12 5 9 10 -3 6 -10 10 -16 10 -5
0 -9 -4 -9 -10z"/>
<path d="M6120 1710 c0 -5 5 -10 11 -10 5 0 7 5 4 10 -3 6 -8 10 -11 10 -2 0
-4 -4 -4 -10z"/>
<path d="M5860 1700 c-9 -6 -10 -10 -3 -10 6 0 15 5 18 10 8 12 4 12 -15 0z"/>
<path d="M6408 1703 c7 -3 16 -2 19 1 4 3 -2 6 -13 5 -11 0 -14 -3 -6 -6z"/>
<path d="M6458 1703 c7 -3 16 -2 19 1 4 3 -2 6 -13 5 -11 0 -14 -3 -6 -6z"/>
<path d="M6688 1703 c6 -2 18 -2 25 0 6 3 1 5 -13 5 -14 0 -19 -2 -12 -5z"/>
<path d="M5914 1675 c-2 -21 1 -24 12 -14 11 9 11 15 3 25 -15 18 -14 18 -15
-11z"/>
<path d="M6028 1693 c7 -3 16 -2 19 1 4 3 -2 6 -13 5 -11 0 -14 -3 -6 -6z"/>
<path d="M6142 1689 c-27 -10 -29 -29 -2 -29 11 0 20 5 20 12 0 6 8 4 19 -6
13 -12 21 -14 26 -6 4 6 5 12 4 13 -2 1 -13 7 -24 13 -12 7 -29 8 -43 3z"/>
<path d="M6309 1684 c-12 -14 -11 -16 5 -13 11 2 21 10 24 17 5 17 -13 15 -29
-4z"/>
<path d="M6631 1684 c0 -11 3 -14 6 -6 3 7 2 16 -1 19 -3 4 -6 -2 -5 -13z"/>
<path d="M5996 1674 c-3 -9 -2 -23 4 -32 7 -14 9 -10 10 16 0 35 -5 41 -14 16z"/>
<path d="M6240 1680 c0 -5 5 -10 11 -10 5 0 7 5 4 10 -3 6 -8 10 -11 10 -2 0
-4 -4 -4 -10z"/>
<path d="M5850 1660 c0 -5 5 -10 10 -10 6 0 10 5 10 10 0 6 -4 10 -10 10 -5 0
-10 -4 -10 -10z"/>
<path d="M5723 1636 c4 -10 0 -12 -14 -9 -11 3 -19 0 -19 -6 0 -7 5 -9 11 -5
7 4 2 -7 -11 -24 -12 -16 -19 -35 -16 -41 10 -15 53 -14 59 2 4 9 6 9 6 -1 1
-7 6 -10 11 -7 14 9 12 67 -4 88 -16 20 -30 23 -23 3z"/>
<path d="M6386 1641 c-4 -7 -5 -15 -2 -18 9 -9 19 4 14 18 -4 11 -6 11 -12 0z"/>
<path d="M5950 1630 c0 -5 7 -10 15 -10 8 0 15 5 15 10 0 6 -7 10 -15 10 -8 0
-15 -4 -15 -10z"/>
<path d="M6140 1630 c-24 -6 -23 -7 9 -13 38 -8 48 -5 29 10 -7 5 -24 7 -38 3z"/>
<path d="M6600 1630 c0 -5 5 -10 10 -10 6 0 10 5 10 10 0 6 -4 10 -10 10 -5 0
-10 -4 -10 -10z"/>
<path d="M5895 1614 c-19 -14 -19 -15 3 -20 12 -4 22 -10 22 -15 0 -5 18 -9
40 -9 22 0 40 5 40 10 0 6 -18 10 -39 10 -31 0 -40 4 -43 19 -3 18 -5 18 -23
5z"/>
<path d="M6028 1623 c7 -3 16 -2 19 1 4 3 -2 6 -13 5 -11 0 -14 -3 -6 -6z"/>
<path d="M6268 1623 c6 -2 18 -2 25 0 6 3 1 5 -13 5 -14 0 -19 -2 -12 -5z"/>
<path d="M6328 1613 c7 -3 16 -2 19 1 4 3 -2 6 -13 5 -11 0 -14 -3 -6 -6z"/>
<path d="M6670 1611 c0 -4 11 -6 25 -3 14 2 25 6 25 8 0 2 -11 4 -25 4 -14 0
-25 -4 -25 -9z"/>
<path d="M6562 1580 c0 -14 2 -19 5 -12 2 6 2 18 0 25 -3 6 -5 1 -5 -13z"/>
<path d="M5840 1580 c0 -5 9 -10 20 -10 11 0 20 5 20 10 0 6 -9 10 -20 10 -11
0 -20 -4 -20 -10z"/>
<path d="M5647 1573 c-2 -5 -1 -35 3 -68 6 -53 4 -61 -14 -76 -12 -10 -17 -21
-13 -26 5 -4 16 1 25 12 13 16 28 20 62 19 37 -1 38 0 8 3 l-38 4 0 49 c0 36
-5 52 -17 59 -16 9 -16 12 -3 21 9 6 10 10 3 10 -6 0 -14 -3 -16 -7z"/>
<path d="M6160 1570 c0 -5 7 -10 16 -10 8 0 12 5 9 10 -3 6 -10 10 -16 10 -5
0 -9 -4 -9 -10z"/>
<path d="M6370 1566 c0 -2 7 -6 15 -10 8 -3 15 -1 15 4 0 6 -7 10 -15 10 -8 0
-15 -2 -15 -4z"/>
<path d="M5898 1553 c7 -3 16 -2 19 1 4 3 -2 6 -13 5 -11 0 -14 -3 -6 -6z"/>
<path d="M6800 1545 c0 -8 4 -15 10 -15 5 0 7 7 4 15 -4 8 -8 15 -10 15 -2 0
-4 -7 -4 -15z"/>
<path d="M5842 1503 c1 -48 1 -48 5 -8 3 22 10 43 16 47 8 5 6 8 -5 8 -15 0
-18 -8 -16 -47z"/>
<path d="M5913 1500 c0 -25 2 -35 4 -22 2 12 2 32 0 45 -2 12 -4 2 -4 -23z"/>
<path d="M6043 1526 c26 -20 21 -42 -15 -60 l-33 -16 45 0 c34 0 41 3 30 11
-11 8 -12 12 -2 16 26 10 2 63 -30 63 -9 -1 -7 -5 5 -14z"/>
<path d="M6430 1530 c0 -5 5 -10 10 -10 6 0 10 5 10 10 0 6 -4 10 -10 10 -5 0
-10 -4 -10 -10z"/>
<path d="M6640 1526 c0 -8 -6 -16 -12 -19 -7 -2 -10 -8 -5 -12 4 -5 14 0 22
11 17 23 19 34 5 34 -5 0 -10 -6 -10 -14z"/>
<path d="M6160 1481 c0 -12 5 -21 10 -21 6 0 10 6 10 14 0 8 -4 18 -10 21 -5
3 -10 -3 -10 -14z"/>
<path d="M6706 1481 c-4 -7 -5 -15 -2 -18 9 -9 19 4 14 18 -4 11 -6 11 -12 0z"/>
<path d="M6220 1456 c0 -9 30 -14 35 -6 4 6 -3 10 -14 10 -12 0 -21 -2 -21 -4z"/>
<path d="M6860 1451 c0 -6 5 -13 10 -16 6 -3 10 1 10 9 0 9 -4 16 -10 16 -5 0
-10 -4 -10 -9z"/>
<path d="M5890 1427 c0 -7 7 -22 15 -33 14 -18 14 -17 15 14 0 22 -5 32 -15
32 -8 0 -15 -6 -15 -13z"/>
<path d="M6000 1420 c0 -5 18 -10 40 -10 22 0 40 5 40 10 0 6 -18 10 -40 10
-22 0 -40 -4 -40 -10z"/>
<path d="M6160 1420 c0 -5 5 -10 10 -10 6 0 10 5 10 10 0 6 -4 10 -10 10 -5 0
-10 -4 -10 -10z"/>
<path d="M6270 1420 c0 -5 5 -10 10 -10 6 0 10 5 10 10 0 6 -4 10 -10 10 -5 0
-10 -4 -10 -10z"/>
<path d="M5834 1387 c-5 -7 -13 -20 -17 -31 -5 -13 -13 -17 -32 -12 -30 8 -32
-4 -6 -28 17 -16 19 -15 33 6 10 15 29 24 64 29 l49 6 -42 2 c-24 0 -43 6 -43
11 0 6 5 10 10 10 6 0 10 5 10 10 0 13 -13 12 -26 -3z"/>
<path d="M6230 1390 c-12 -8 -10 -10 8 -10 13 0 20 4 17 10 -7 12 -6 12 -25 0z"/>
<path d="M5680 1370 c0 -11 -7 -20 -15 -20 -8 0 -15 -5 -15 -11 0 -7 9 -9 23
-5 12 3 25 6 30 6 4 0 7 9 7 19 0 14 8 21 28 24 19 3 14 4 -15 6 -37 1 -43 -2
-43 -19z"/>
<path d="M6013 1383 c9 -2 17 -11 17 -19 0 -8 5 -14 10 -14 6 0 10 6 10 14 0
8 8 17 18 19 9 3 -3 5 -28 5 -25 0 -37 -2 -27 -5z"/>
<path d="M6858 1373 c7 -3 16 -2 19 1 4 3 -2 6 -13 5 -11 0 -14 -3 -6 -6z"/>
<path d="M6265 1360 c-3 -5 3 -10 15 -10 12 0 18 5 15 10 -3 6 -10 10 -15 10
-5 0 -12 -4 -15 -10z"/>
<path d="M6380 1340 c0 -5 5 -10 10 -10 6 0 10 5 10 10 0 6 -4 10 -10 10 -5 0
-10 -4 -10 -10z"/>
<path d="M5920 1315 c-63 -9 -74 -13 -42 -14 l42 -1 0 -40 c0 -22 -4 -40 -10
-40 -5 0 -10 -9 -10 -20 0 -11 -4 -20 -10 -20 -5 0 -10 -9 -10 -20 0 -28 28
-25 36 4 3 14 12 27 19 29 8 4 11 21 7 56 l-5 51 37 0 c25 0 36 4 36 15 0 8
-1 14 -2 14 -2 -1 -41 -7 -88 -14z"/>
<path d="M6071 1314 c0 -11 3 -14 6 -6 3 7 2 16 -1 19 -3 4 -6 -2 -5 -13z"/>
<path d="M6238 1303 c7 -3 16 -2 19 1 4 3 -2 6 -13 5 -11 0 -14 -3 -6 -6z"/>
<path d="M6315 1303 c11 -3 25 -10 32 -15 7 -5 18 -6 25 -2 14 9 -21 22 -57
22 l-20 0 20 -5z"/>
<path d="M6110 1285 c0 -8 5 -15 10 -15 6 0 10 7 10 15 0 8 -4 15 -10 15 -5 0
-10 -7 -10 -15z"/>
<path d="M6168 1293 c7 -3 16 -2 19 1 4 3 -2 6 -13 5 -11 0 -14 -3 -6 -6z"/>
<path d="M6320 1260 c0 -19 3 -21 12 -12 9 9 9 15 0 24 -9 9 -12 7 -12 -12z"/>
<path d="M6384 1269 c-3 -6 -1 -16 5 -22 8 -8 11 -5 11 11 0 24 -5 28 -16 11z"/>
<path d="M6800 1270 c0 -5 5 -10 10 -10 6 0 10 5 10 10 0 6 -4 10 -10 10 -5 0
-10 -4 -10 -10z"/>
<path d="M6220 1249 c0 -7 -14 -10 -35 -7 -40 5 -44 -3 -15 -32 16 -16 20 -17
20 -5 0 8 5 15 11 15 11 0 39 24 39 34 0 3 -4 6 -10 6 -5 0 -10 -5 -10 -11z"/>
<path d="M6345 1230 c-3 -5 3 -10 15 -10 12 0 18 5 15 10 -3 6 -10 10 -15 10
-5 0 -12 -4 -15 -10z"/>
<path d="M6990 1230 c0 -5 5 -10 10 -10 6 0 10 5 10 10 0 6 -4 10 -10 10 -5 0
-10 -4 -10 -10z"/>
<path d="M6471 1185 c0 -38 2 -45 9 -28 5 12 5 34 0 50 -7 24 -8 21 -9 -22z"/>
<path d="M6236 1183 c-8 -49 -8 -107 0 -127 7 -18 84 -23 84 -6 0 6 -18 10
-41 10 l-41 0 7 80 c7 83 2 108 -9 43z"/>
<path d="M6310 1180 c0 -44 16 -59 47 -41 14 8 15 10 3 11 -28 1 -45 17 -33
32 8 9 7 16 -3 26 -12 11 -14 6 -14 -28z"/>
<path d="M6421 1183 c-1 -23 -7 -44 -13 -46 -7 -3 -4 -6 7 -6 18 -1 20 4 17
37 -5 55 -10 62 -11 15z"/>
<path d="M6590 1180 c0 -5 5 -10 10 -10 6 0 10 5 10 10 0 6 -4 10 -10 10 -5 0
-10 -4 -10 -10z"/>
<path d="M5977 1163 c-12 -11 -8 -23 8 -23 8 0 15 7 15 15 0 16 -12 20 -23 8z"/>
<path d="M7385 1150 c-3 -5 1 -10 10 -10 9 0 13 5 10 10 -3 6 -8 10 -10 10 -2
0 -7 -4 -10 -10z"/>
<path d="M7068 1143 c7 -3 16 -2 19 1 4 3 -2 6 -13 5 -11 0 -14 -3 -6 -6z"/>
<path d="M5920 1124 c0 -17 22 -14 28 4 2 7 -3 12 -12 12 -9 0 -16 -7 -16 -16z"/>
<path d="M6130 1130 c0 -5 6 -13 14 -17 8 -4 16 -19 19 -33 3 -16 5 -10 6 18
1 36 -2 42 -19 42 -11 0 -20 -4 -20 -10z"/>
<path d="M6584 1124 c3 -9 6 -18 6 -20 0 -3 5 -2 10 1 16 10 12 35 -6 35 -11
0 -14 -5 -10 -16z"/>
<path d="M6510 1120 c0 -5 5 -10 10 -10 6 0 10 5 10 10 0 6 -4 10 -10 10 -5 0
-10 -4 -10 -10z"/>
<path d="M6720 1100 c0 -5 5 -10 10 -10 6 0 10 5 10 10 0 6 -4 10 -10 10 -5 0
-10 -4 -10 -10z"/>
<path d="M6370 1086 c0 -2 7 -6 15 -10 8 -3 15 -1 15 4 0 6 -7 10 -15 10 -8 0
-15 -2 -15 -4z"/>
<path d="M6480 1080 c0 -5 4 -10 9 -10 6 0 13 5 16 10 3 6 -1 10 -9 10 -9 0
-16 -4 -16 -10z"/>
<path d="M6535 1080 c-3 -6 1 -13 10 -16 19 -8 30 0 20 15 -8 14 -22 14 -30 1z"/>
<path d="M6387 1063 c-10 -3 -16 -10 -14 -16 6 -19 23 -18 47 3 21 18 21 20 4
19 -10 -1 -27 -3 -37 -6z"/>
<path d="M6420 1021 c0 -11 -6 -21 -12 -24 -7 -2 -10 -8 -6 -12 10 -10 51 31
43 44 -10 18 -25 13 -25 -8z"/>
<path d="M6880 1030 c0 -5 5 -10 10 -10 6 0 10 5 10 10 0 6 -4 10 -10 10 -5 0
-10 -4 -10 -10z"/>
<path d="M6940 1030 c0 -5 5 -10 10 -10 6 0 10 5 10 10 0 6 -4 10 -10 10 -5 0
-10 -4 -10 -10z"/>
<path d="M6320 956 c0 -63 19 -78 22 -16 0 22 1 45 2 52 1 6 -5 13 -11 16 -10
3 -13 -12 -13 -52z"/>
<path d="M6100 990 c0 -5 9 -10 20 -10 11 0 20 5 20 10 0 6 -9 10 -20 10 -11
0 -20 -4 -20 -10z"/>
<path d="M6908 983 c6 -2 18 -2 25 0 6 3 1 5 -13 5 -14 0 -19 -2 -12 -5z"/>
<path d="M6430 940 c0 -22 5 -40 10 -40 6 0 10 18 10 40 0 22 -4 40 -10 40 -5
0 -10 -18 -10 -40z"/>
<path d="M6560 910 c0 -15 6 -20 28 -19 16 1 20 3 10 6 -10 2 -18 11 -18 19 0
8 -4 14 -10 14 -5 0 -10 -9 -10 -20z"/>
<path d="M6620 915 c0 -8 5 -15 10 -15 6 0 11 -26 12 -57 1 -47 2 -50 5 -18 5
48 -4 105 -17 105 -6 0 -10 -7 -10 -15z"/>
<path d="M6750 910 c0 -5 5 -10 10 -10 6 0 10 5 10 10 0 6 -4 10 -10 10 -5 0
-10 -4 -10 -10z"/>
<path d="M6200 885 c0 -8 5 -15 10 -15 6 0 10 7 10 15 0 8 -4 15 -10 15 -5 0
-10 -7 -10 -15z"/>
<path d="M6248 893 c7 -3 16 -2 19 1 4 3 -2 6 -13 5 -11 0 -14 -3 -6 -6z"/>
<path d="M6712 860 c0 -25 2 -38 5 -30 3 8 11 18 17 23 8 5 8 9 0 15 -6 4 -14
14 -17 22 -3 8 -5 -5 -5 -30z"/>
<path d="M7280 889 c0 -5 5 -7 10 -4 6 3 10 8 10 11 0 2 -4 4 -10 4 -5 0 -10
-5 -10 -11z"/>
<path d="M6290 860 c0 -5 7 -10 15 -10 8 0 15 5 15 10 0 6 -7 10 -15 10 -8 0
-15 -4 -15 -10z"/>
<path d="M6560 860 c0 -5 11 -10 25 -10 14 0 25 5 25 10 0 6 -11 10 -25 10
-14 0 -25 -4 -25 -10z"/>
<path d="M6231 843 c-1 -18 4 -23 22 -22 15 1 17 3 5 6 -9 2 -19 12 -21 21 -3
12 -5 10 -6 -5z"/>
<path d="M6176 841 c-4 -7 -5 -15 -2 -18 9 -9 19 4 14 18 -4 11 -6 11 -12 0z"/>
<path d="M6573 823 c9 -2 23 -2 30 0 6 3 -1 5 -18 5 -16 0 -22 -2 -12 -5z"/>
<path d="M6428 813 c18 -2 45 -2 60 0 15 2 0 4 -33 4 -33 0 -45 -2 -27 -4z"/>
<path d="M6830 810 c0 -5 5 -10 10 -10 6 0 10 5 10 10 0 6 -4 10 -10 10 -5 0
-10 -4 -10 -10z"/>
<path d="M6910 805 c0 -8 5 -15 10 -15 6 0 10 7 10 15 0 8 -4 15 -10 15 -5 0
-10 -7 -10 -15z"/>
<path d="M6530 780 c0 -5 7 -10 15 -10 8 0 15 5 15 10 0 6 -7 10 -15 10 -8 0
-15 -4 -15 -10z"/>
<path d="M7276 773 c-6 -14 -5 -15 5 -6 7 7 10 15 7 18 -3 3 -9 -2 -12 -12z"/>
<path d="M7320 780 c0 -5 5 -10 10 -10 6 0 10 5 10 10 0 6 -4 10 -10 10 -5 0
-10 -4 -10 -10z"/>
<path d="M6418 763 c12 -2 32 -2 45 0 12 2 2 4 -23 4 -25 0 -35 -2 -22 -4z"/>
<path d="M6710 755 c0 -16 -36 -21 -42 -6 -1 5 -9 3 -16 -5 -11 -12 -7 -14 28
-14 33 0 40 3 40 20 0 11 -2 20 -5 20 -3 0 -5 -7 -5 -15z"/>
<path d="M7038 758 c-7 -17 -1 -48 8 -48 2 0 13 9 24 20 22 22 26 40 10 40 -5
0 -10 -7 -10 -15 0 -21 -18 -19 -22 3 -3 16 -4 16 -10 0z"/>
<path d="M7111 754 c0 -11 3 -14 6 -6 3 7 2 16 -1 19 -3 4 -6 -2 -5 -13z"/>
<path d="M6240 745 c0 -11 -11 -15 -42 -15 -23 0 -39 -3 -35 -6 3 -3 40 -3 81
1 55 5 76 11 76 21 0 10 -13 14 -40 14 -29 0 -40 -4 -40 -15z"/>
<path d="M6867 747 c-3 -9 1 -18 9 -21 16 -6 18 2 5 22 -7 11 -9 11 -14 -1z"/>
<path d="M6474 736 c-3 -8 -4 -29 -1 -48 3 -30 4 -30 5 9 2 30 7 43 20 46 16
4 16 5 -1 6 -10 0 -20 -5 -23 -13z"/>
<path d="M7281 734 c0 -11 3 -14 6 -6 3 7 2 16 -1 19 -3 4 -6 -2 -5 -13z"/>
<path d="M6403 700 c0 -25 2 -35 4 -22 2 12 2 32 0 45 -2 12 -4 2 -4 -23z"/>
<path d="M6931 724 c0 -11 3 -14 6 -6 3 7 2 16 -1 19 -3 4 -6 -2 -5 -13z"/>
<path d="M7430 730 c0 -5 9 -10 20 -10 11 0 20 5 20 10 0 6 -9 10 -20 10 -11
0 -20 -4 -20 -10z"/>
<path d="M6800 709 c0 -5 5 -7 10 -4 6 3 10 8 10 11 0 2 -4 4 -10 4 -5 0 -10
-5 -10 -11z"/>
<path d="M6865 690 c-3 -5 -1 -10 4 -10 6 0 11 5 11 10 0 6 -2 10 -4 10 -3 0
-8 -4 -11 -10z"/>
<path d="M6985 680 c-14 -16 -21 -18 -28 -8 -6 10 -7 9 -4 -2 2 -9 13 -14 28
-12 29 5 51 21 43 33 -8 14 -19 11 -39 -11z"/>
<path d="M6901 674 c0 -11 3 -14 6 -6 3 7 2 16 -1 19 -3 4 -6 -2 -5 -13z"/>
<path d="M6658 663 c12 -2 32 -2 45 0 12 2 2 4 -23 4 -25 0 -35 -2 -22 -4z"/>
<path d="M6801 623 c1 -53 6 -49 11 10 2 20 0 37 -4 37 -4 0 -8 -21 -7 -47z"/>
<path d="M7374 659 c-13 -5 -7 -8 24 -8 23 -1 42 1 42 3 0 8 -48 12 -66 5z"/>
<path d="M6250 620 c0 -38 2 -40 30 -40 28 0 30 2 30 40 0 38 -2 40 -30 40
-28 0 -30 -2 -30 -40z"/>
<path d="M6600 641 c0 -26 16 -35 24 -15 10 25 7 34 -9 34 -8 0 -15 -9 -15
-19z"/>
<path d="M6750 620 c0 -22 5 -40 10 -40 6 0 10 18 10 40 0 22 -4 40 -10 40 -5
0 -10 -18 -10 -40z"/>
<path d="M6873 620 c0 -25 2 -35 4 -22 2 12 2 32 0 45 -2 12 -4 2 -4 -23z"/>
<path d="M6640 640 c0 -5 14 -10 30 -10 17 0 30 5 30 10 0 6 -13 10 -30 10
-16 0 -30 -4 -30 -10z"/>
<path d="M6990 620 c0 -5 5 -10 10 -10 6 0 10 5 10 10 0 6 -4 10 -10 10 -5 0
-10 -4 -10 -10z"/>
<path d="M6561 593 c-1 -33 20 -46 34 -23 3 6 2 10 -3 10 -5 0 -14 10 -20 23
-10 21 -11 20 -11 -10z"/>
<path d="M6640 600 c0 -5 14 -10 30 -10 17 0 30 5 30 10 0 6 -13 10 -30 10
-16 0 -30 -4 -30 -10z"/>
<path d="M7263 603 c-18 -7 -16 -23 2 -23 8 0 15 7 15 15 0 8 -1 15 -2 14 -2
0 -9 -3 -15 -6z"/>
<path d="M7330 596 c0 -9 5 -16 10 -16 6 0 10 4 10 9 0 6 -4 13 -10 16 -5 3
-10 -1 -10 -9z"/>
<path d="M7117 579 c7 -7 15 -10 18 -7 3 3 -2 9 -12 12 -14 6 -15 5 -6 -5z"/>
<path d="M6670 540 c0 -22 5 -40 10 -40 6 0 10 18 10 40 0 22 -4 40 -10 40 -5
0 -10 -18 -10 -40z"/>
<path d="M6720 539 c0 -28 -6 -46 -17 -55 -17 -13 -17 -13 0 -14 9 0 17 5 17
10 0 6 19 11 43 12 36 1 38 2 10 5 -31 4 -33 7 -33 44 0 21 -4 39 -10 39 -5 0
-10 -19 -10 -41z"/>
<path d="M6990 570 c0 -5 5 -10 10 -10 6 0 10 5 10 10 0 6 -4 10 -10 10 -5 0
-10 -4 -10 -10z"/>
<path d="M7500 571 c0 -6 5 -13 10 -16 6 -3 10 1 10 9 0 9 -4 16 -10 16 -5 0
-10 -4 -10 -9z"/>
<path d="M7180 540 c0 -5 5 -10 10 -10 6 0 10 5 10 10 0 6 -4 10 -10 10 -5 0
-10 -4 -10 -10z"/>
<path d="M6583 533 c-15 -3 -23 -12 -23 -24 0 -13 7 -19 23 -18 12 0 16 3 9 6
-19 7 -4 23 24 23 13 0 24 5 24 10 0 10 -16 11 -57 3z"/>
<path d="M6960 496 c0 -22 3 -27 11 -19 8 8 8 16 0 30 -9 16 -10 14 -11 -11z"/>
<path d="M7280 496 c0 -18 4 -24 15 -20 8 4 15 8 15 11 0 2 -7 11 -15 19 -13
14 -15 13 -15 -10z"/>
<path d="M7465 510 c-3 -5 -1 -10 4 -10 6 0 11 5 11 10 0 6 -2 10 -4 10 -3 0
-8 -4 -11 -10z"/>
<path d="M6620 480 c0 -5 5 -10 10 -10 6 0 10 5 10 10 0 6 -4 10 -10 10 -5 0
-10 -4 -10 -10z"/>
<path d="M6560 460 c0 -5 9 -10 20 -10 11 0 20 5 20 10 0 6 -9 10 -20 10 -11
0 -20 -4 -20 -10z"/>
<path d="M6630 450 c-8 -5 -12 -11 -9 -14 7 -8 49 5 49 15 0 12 -21 11 -40 -1z"/>
<path d="M7026 441 c-5 -8 -3 -17 5 -22 17 -11 39 -12 23 -1 -6 4 -13 14 -16
22 -3 11 -6 11 -12 1z"/>
<path d="M7533 423 c9 -2 23 -2 30 0 6 3 -1 5 -18 5 -16 0 -22 -2 -12 -5z"/>
<path d="M6882 397 c-2 -28 -3 -29 -42 -22 -37 6 -40 5 -40 -15 0 -16 4 -20
16 -16 39 15 64 18 64 7 0 -6 -5 -11 -12 -11 -6 0 0 -13 15 -28 15 -15 27 -33
27 -40 0 -7 6 -12 14 -12 11 0 11 8 3 40 -6 22 -17 40 -23 40 -8 0 -14 17 -17
43 -2 26 -4 31 -5 14z"/>
<path d="M6953 380 c0 -25 2 -35 4 -22 2 12 2 32 0 45 -2 12 -4 2 -4 -23z"/>
<path d="M7100 416 c0 -2 7 -6 15 -10 8 -3 15 -1 15 4 0 6 -7 10 -15 10 -8 0
-15 -2 -15 -4z"/>
<path d="M7068 358 c9 -9 15 -9 24 0 9 9 7 12 -12 12 -19 0 -21 -3 -12 -12z"/>
<path d="M7182 344 c-13 -14 -9 -34 7 -34 11 0 21 39 13 44 -4 2 -13 -2 -20
-10z"/>
<path d="M7432 300 c0 -25 2 -38 5 -30 3 8 11 18 17 23 8 5 8 9 0 15 -6 4 -14
14 -17 22 -3 8 -5 -5 -5 -30z"/>
<path d="M6816 322 c-3 -6 -1 -14 5 -17 15 -10 25 3 12 16 -7 7 -13 7 -17 1z"/>
<path d="M6857 294 c-8 -8 1 -24 14 -24 5 0 9 7 9 15 0 15 -12 20 -23 9z"/>
<path d="M7120 276 c0 -8 -6 -17 -12 -20 -7 -3 -2 -3 12 0 31 8 34 10 25 23
-9 16 -25 13 -25 -3z"/>
<path d="M7217 270 c-21 -25 -21 -30 -2 -30 8 0 15 5 15 10 0 6 7 10 16 10 9
0 14 5 12 12 -7 20 -23 19 -41 -2z"/>
<path d="M6818 263 c7 -3 16 -2 19 1 4 3 -2 6 -13 5 -11 0 -14 -3 -6 -6z"/>
<path d="M6785 250 c3 -5 8 -10 11 -10 2 0 4 5 4 10 0 6 -5 10 -11 10 -5 0 -7
-4 -4 -10z"/>
<path d="M6730 235 c-10 -12 -10 -18 0 -30 15 -18 30 -11 30 15 0 26 -15 33
-30 15z"/>
<path d="M6990 211 c0 -21 28 -61 42 -61 5 0 8 9 8 20 0 10 7 23 16 28 9 5 14
14 10 21 -10 16 -26 14 -26 -4 0 -14 -3 -13 -25 1 -24 16 -25 15 -25 -5z"/>
<path d="M7120 205 c0 -20 5 -25 25 -25 22 0 24 3 16 19 -17 31 -41 34 -41 6z"/>
<path d="M7250 215 c0 -8 7 -15 15 -15 8 0 15 7 15 15 0 8 -7 15 -15 15 -8 0
-15 -7 -15 -15z"/>
<path d="M6785 191 c-3 -6 -17 -11 -29 -11 -27 0 -36 -29 -36 -111 l0 -49 -45
0 c-25 0 -45 -4 -45 -10 0 -15 87 -12 93 3 4 10 6 10 6 0 1 -15 31 -18 31 -3
0 6 9 10 20 10 16 0 20 7 20 30 0 28 2 30 39 30 31 0 41 4 46 21 4 11 4 23 1
26 -3 4 -6 -1 -6 -10 0 -13 -9 -17 -40 -17 -39 0 -40 1 -40 36 0 23 -4 33 -11
28 -7 -4 -9 -25 -4 -60 4 -36 3 -54 -4 -54 -6 0 -11 11 -11 24 0 13 -5 26 -11
28 -13 4 15 67 35 80 6 4 8 10 4 13 -3 4 -9 2 -13 -4z m-35 -146 c0 -14 -4
-25 -10 -25 -5 0 -10 11 -10 25 0 14 5 25 10 25 6 0 10 -11 10 -25z"/>
<path d="M6910 165 c0 -8 5 -15 10 -15 6 0 10 7 10 15 0 8 -4 15 -10 15 -5 0
-10 -7 -10 -15z"/>
<path d="M7218 173 c12 -2 32 -2 45 0 12 2 2 4 -23 4 -25 0 -35 -2 -22 -4z"/>
<path d="M6952 113 c2 -14 14 -18 48 -19 25 -1 34 0 20 3 -14 3 -29 11 -33 19
-12 20 -39 18 -35 -3z"/>
<path d="M7218 123 c12 -2 32 -2 45 0 12 2 2 4 -23 4 -25 0 -35 -2 -22 -4z"/>
<path d="M7120 84 c0 -9 5 -14 12 -12 18 6 21 28 4 28 -9 0 -16 -7 -16 -16z"/>
<path d="M7218 93 c6 -2 18 -2 25 0 6 3 1 5 -13 5 -14 0 -19 -2 -12 -5z"/>
<path d="M7500 91 c0 -6 5 -13 10 -16 6 -3 10 1 10 9 0 9 -4 16 -10 16 -5 0
-10 -4 -10 -9z"/>
<path d="M6910 80 c0 -5 11 -10 25 -10 14 0 25 5 25 10 0 6 -11 10 -25 10 -14
0 -25 -4 -25 -10z"/>
<path d="M7260 55 c0 -8 5 -15 10 -15 6 0 10 7 10 15 0 8 -4 15 -10 15 -5 0
-10 -7 -10 -15z"/>
<path d="M6910 40 c0 -7 21 -9 63 -4 83 9 85 14 4 14 -40 0 -67 -4 -67 -10z"/>
<path d="M7177 43 c-4 -3 -7 -15 -7 -25 0 -17 2 -18 15 -4 8 8 15 19 15 25 0
12 -13 15 -23 4z"/>
<path d="M7465 30 c-3 -5 -1 -10 4 -10 6 0 11 5 11 10 0 6 -2 10 -4 10 -3 0
-8 -4 -11 -10z"/>
<path d="M6590 10 c0 -5 5 -10 10 -10 6 0 10 5 10 10 0 6 -4 10 -10 10 -5 0
-10 -4 -10 -10z"/>
<path d="M6810 10 c0 -5 9 -10 20 -10 11 0 20 5 20 10 0 6 -9 10 -20 10 -11 0
-20 -4 -20 -10z"/>
<path d="M6890 10 c0 -5 5 -10 10 -10 6 0 10 5 10 10 0 6 -4 10 -10 10 -5 0
-10 -4 -10 -10z"/>
<path d="M6930 10 c0 -5 5 -10 10 -10 6 0 10 5 10 10 0 6 -4 10 -10 10 -5 0
-10 -4 -10 -10z"/>
<path d="M6960 10 c0 -5 7 -10 15 -10 8 0 15 5 15 10 0 6 -7 10 -15 10 -8 0
-15 -4 -15 -10z"/>
<path d="M7010 10 c0 -5 5 -10 10 -10 6 0 10 5 10 10 0 6 -4 10 -10 10 -5 0
-10 -4 -10 -10z"/>
<path d="M7070 10 c0 -5 5 -10 10 -10 6 0 10 5 10 10 0 6 -4 10 -10 10 -5 0
-10 -4 -10 -10z"/>
<path d="M7210 10 c0 -5 5 -10 10 -10 6 0 10 5 10 10 0 6 -4 10 -10 10 -5 0
-10 -4 -10 -10z"/>
<path d="M7260 10 c0 -5 5 -10 10 -10 6 0 10 5 10 10 0 6 -4 10 -10 10 -5 0
-10 -4 -10 -10z"/>
<path d="M7310 10 c0 -5 5 -10 10 -10 6 0 10 5 10 10 0 6 -4 10 -10 10 -5 0
-10 -4 -10 -10z"/>
</g>
</svg>
